<?xml version="1.0" encoding="UTF-8"?>
<svg width="203.73mm" height="203.73mm" version="1.1" viewBox="0 0 203.73 203.73" xml:space="preserve" xmlns="http://www.w3.org/2000/svg"><defs><linearGradient id="linearGradient1930" x1="82.021" x2="82.021" y1="60.854" y2="113.77" gradientUnits="userSpaceOnUse"><stop stop-color="#63d8ac" offset="0"/><stop stop-color="#a2efcb" offset="1"/></linearGradient><linearGradient id="linearGradient1970" x1="82.021" x2="82.021" y1="105.83" y2="158.75" gradientUnits="userSpaceOnUse"><stop stop-color="#01bba6" offset="0"/><stop stop-color="#6bdbc8" offset="1"/></linearGradient></defs><circle id="background" cx="101.86" cy="101.86" r="100.54" fill="#fff"/><g transform="matrix(.99998 0 0 .99998 22.49 22.49)" stroke-width="0"><path id="circle" d="M 158.75,79.375 A 79.375,79.375 0 0 1 79.375,158.75 79.375,79.375 0 0 1 0,79.375 79.375,79.375 0 0 1 79.375,0 79.375,79.375 0 0 1 158.75,79.375 Z" fill="#fff"/><path id="top_trees" d="m129.38 26.723s-0.79375 4.2333-3.175 7.6729h1.6211c-1.2496 1.8104-3.1121 4.2867-5.0607 6.0854 2.3533-0.74877 3.8844-0.89179 4.8741-0.79685-0.8897 1.2605-2.1234 2.9053-3.7155 4.7966-2.4269-3.8721-3.5398-8.7623-3.5398-8.7623s-1.0308 4.5318-3.2727 8.3246c-0.20252-0.31586-0.39497-0.62598-0.57051-0.91622h0.93276c-1.0583-1.5875-1.8521-3.7042-1.8521-3.7042s-0.79375 2.1167-1.8521 3.7042h0.93276c-0.56758 0.93846-1.3134 2.0972-1.9911 2.9104 0.81029-0.57878 1.4686-0.65106 1.9528-0.54932-0.91522 1.3396-2.2963 3.274-3.2758 4.2535 0.60818-0.24327 1.5504-0.26171 2.3926-0.21187-0.56862 0.68472-1.2141 1.4171-1.8547 2.0526-1.2413-1.3393-2.1511-2.6859-2.7611-3.7186 0.59958-0.10604 1.411-0.11562 2.2231 0.29042-1.035-0.77628-1.8162-1.9318-2.3451-2.9104h1.0222c-1.0583-1.5875-1.8521-4.4979-1.8521-4.4979s-0.79375 2.9104-1.8521 4.4979h1.0222c-0.52891 0.97861-1.31 2.1341-2.3451 2.9104 0.81209-0.40604 1.6236-0.39646 2.2231-0.29042-0.6923 1.1721-1.7715 2.7492-3.2814 4.2592l2.0516-0.12816-8.137 9.3886h8.5907l-4.8865 6.0854h-30.162l-4.7625-4.27c1.5746-0.09516 3.4575-0.09022 4.7625 0.30127-1.9-0.78237-3.5626-1.9419-4.8509-3.021 1.1736-0.01926 2.4988-0.0038 3.528 0.11059-1.3181-0.4943-3.4566-2.3217-4.8829-3.6308 0.96552-0.07241 2.3229-0.08183 3.8246 0.1912-1.1213-0.56063-2.5361-1.9359-3.622-3.1073 0.89744-0.06743 1.8996-0.06941 2.2991 0.19689-0.9339-0.77824-2.1392-2.5602-2.976-3.8985 0.56921-0.07004 1.2484-0.07551 1.6531 0.1943-0.68048-0.81657-1.3594-1.8413-1.8598-2.6458h0.8015c-1.0583-1.5875-1.5875-3.8365-1.5875-3.8365s-0.52917 2.249-1.5875 3.8365h0.8015c-0.50044 0.8045-1.1794 1.8293-1.8598 2.6458 0.40484-0.26989 1.0843-0.2644 1.6536-0.1943-0.8369 1.3383-2.0426 3.1202-2.9766 3.8985 0.39945-0.2663 1.4016-0.26432 2.2991-0.19689-1.0859 1.1715-2.5007 2.5467-3.622 3.1073 1.5017-0.27303 2.8591-0.26361 3.8246-0.1912-1.0319 0.94706-2.4356 2.1635-3.6329 2.9523-1.2306-0.90198-2.464-2.1416-3.4499-3.2334 1.0258-0.05495 2.2586-0.04215 3.2582 0.20774-1.2389-0.86726-2.4744-2.1384-3.4417-3.2473 0.74577-0.04867 1.6103 0.0056 2.3833 0.33693-1.1275-1.1275-2.4483-2.9381-3.3114-4.1848 0.48746-0.04522 1.1578-0.02133 1.9885 0.21601-0.9522-0.81618-1.6939-1.8415-2.1906-2.6458h1.1322c-1.3229-1.5875-1.8521-3.7042-1.8521-3.7042s-0.52917 2.1167-1.8521 3.7042h1.1322c-0.49663 0.80432-1.2384 1.8297-2.1906 2.6458 0.83067-0.23734 1.501-0.26123 1.9885-0.21601-0.86309 1.2467-2.1839 3.0573-3.3114 4.1848 0.77302-0.33129 1.6375-0.3856 2.3833-0.33693-0.96728 1.109-2.2027 2.3801-3.4417 3.2473 0.99956-0.24989 2.2324-0.2627 3.2582-0.20774-1.1471 1.2703-2.6299 2.7424-4.0519 3.6473 0.86092-0.21523 2.0268-0.23237 3.1089-0.17828-1.2019 1.0289-2.6081 2.1396-3.9073 2.9326-1.3771-1.1791-2.6904-2.5733-3.7962-3.8566 1.5054-0.08642 3.1787-0.07151 4.0654 0.30851-1.8628-1.1463-3.8018-4.1542-5.1893-6.6719 0.90641-0.07154 1.9663-0.03882 2.8081 0.32194-1.137-0.97461-2.6706-3.0436-3.6871-4.4979h1.5704c-1.3229-1.5875-2.6458-5.5562-2.6458-5.5562s-1.3229 3.9688-2.6458 5.5562h1.5704c-1.0165 1.4543-2.5501 3.5233-3.6871 4.4979 0.84178-0.36076 1.9017-0.39348 2.8081-0.32194-1.3876 2.5177-3.3265 5.5256-5.1893 6.6719 0.88671-0.38002 2.56-0.39493 4.0654-0.30851-1.6288 1.8903-3.7115 4.0264-5.7743 5.349-1.2096-0.75628-2.0941-1.5533-2.7264-2.251 0.82194-0.18328 1.9765-0.26105 3.3771 0.12092-1.6704-1.2849-2.8379-2.4424-3.6008-3.2959 0.69053-0.21283 1.6555-0.25424 2.8071 0.38551-1.1708-0.87809-2.2601-2.4839-3.0003-3.7445 0.52186-0.09134 1.1621-0.08156 1.6774 0.30489-0.86861-0.86861-1.5772-1.8938-2.0423-2.6458h0.71934c-0.79375-1.0583-1.3229-2.9104-1.3229-2.9104s-0.52743 1.8449-1.3188 2.9042c-2.5935-1.4503-4.9542-3.5146-6.7097-5.2798 1.6523-0.13301 3.824-0.09556 6.1764 0.52348-1.9006-1.2671-4.0998-3.5631-5.8808-5.6146 1.1487-0.0062 2.5828 0.13745 4.2933 0.58756-2.047-1.5747-4.3689-4.7356-5.9185-7.0425 0.94288-0.0964 2.2343-0.05445 3.8018 0.42788-1.7451-1.3424-3.1489-3.2288-4.1093-4.7625h1.4635c-0.54875-0.6707-0.98931-1.2777-1.3575-1.8262a79.375 79.375 0 0 0-4.3134 6.1293c0.36464-0.0066 0.70863 0.0011 1.0061 0.03152-1.1306 1.6831-2.6723 3.8156-4.2183 5.4601a79.375 79.375 0 0 0-0.71727 1.3565c1.2804-0.26731 2.391-0.36666 3.3104-0.36174-1.7183 1.9795-3.8234 4.1776-5.6767 5.4684a79.375 79.375 0 0 0-0.048059 0.10955c2.2918-0.58 4.4049-0.61682 6.0203-0.48679-1.0575 1.0634-2.3286 2.2347-3.7455 3.3197-0.85931-0.5469-1.7388-1.3098-2.5745-2.1461a79.375 79.375 0 0 0-1.0661 2.7895h2.7668c-0.82164 0.5813-1.6802 1.1214-2.5632 1.5834l-0.56327-0.555a79.375 79.375 0 0 0-4.516 26.224 79.375 79.375 0 0 0 7.8414 34.396h143.07a79.375 79.375 0 0 0 7.8414-34.396 79.375 79.375 0 0 0-12.961-43.457l-0.53227 1.124h1.0253c-0.82682 1.1906-1.9513 2.6458-3.1419 3.7042 1.2393-0.37178 2.3008-0.45193 3.083-0.43356-1.3726 2.051-3.4584 4.9048-4.9351 5.7252 1.1206-0.33619 2.4292-0.45768 3.5677-0.48731-1.4524 1.6894-3.2587 3.5908-4.8907 4.7206 1.2944-0.38833 3.1569-0.50666 4.7238-0.5271-1.4957 1.5312-3.3248 3.2784-4.9196 4.4406-2.5954-1.8757-4.7916-4.2171-6.4864-6.3412 1.4738-0.05222 3.2436 0.06144 5.0948 0.57568-3.3887-3.536-5.79-6.6584-7.2554-8.7344 0.98969-0.09494 2.5209 0.04808 4.8741 0.79685-1.9486-1.7987-3.8111-4.275-5.0607-6.0854h1.6211c-2.3812-3.4396-3.175-7.6729-3.175-7.6729zm-12.787 18.785h0.84233c0.17558 0.04198 0.36301 0.10905 0.56172 0.20671-0.20588 0.29093-0.42215 0.58366-0.65112 0.87333-0.27047-0.38068-0.52581-0.74783-0.75293-1.08zm1.5229 0h0.0258c-4e-3 6e-3 -8e-3 0.01204-0.0124 0.01809-4e-3 -6e-3 -9e-3 -0.01209-0.0134-0.01809zm-7.721 6.4864 1.0304 0.06408c-0.19055 0.17306-0.37833 0.33277-0.56172 0.47697zm2.1906 0.66818c0.29661 0.0013 0.59578 0.0099 0.8847 0.02222l-1.1911 1.4831-1.233-1.4221c0.45017-0.06333 0.98981-0.08559 1.5394-0.0832zm-87.436 0.7829h0.70383c-0.05741 0.09283-0.11874 0.19003-0.18345 0.29042-0.17548-0.09101-0.34689-0.19356-0.52038-0.29042zm-16.902 0.44183c0.50338-0.0034 1.008 0.0035 1.5064 0.01447-0.68316 0.81198-1.3969 1.6001-2.1224 2.3192l-2.2304-2.1968c0.87781-0.08984 1.8548-0.13024 2.8463-0.13694zm14.194 0c1.0597 0.0072 2.1034 0.05254 3.0262 0.15606-0.43754 0.64902-1.0017 1.3934-1.6562 2.0479 0.51527-0.38645 1.1556-0.39623 1.6774-0.30489-0.30718 0.5231-0.67476 1.1047-1.0831 1.6702-1.183-0.99127-2.3665-2.2432-3.4701-3.5548 0.49832-0.01101 1.0026-0.01787 1.5059-0.01447zm120.39 0.21601c0.18902-1e-3 0.37752 0.0014 0.56483 0.0052-1.6637 1.3955-3.6555 2.9401-5.6834 4.2214-1.4932-1.2831-2.8449-2.6246-4.006-3.8731 1.3988-0.03743 3.141 0.0209 5.2514 0.27802-0.0172 0.01075-0.035 0.02304-0.0522 0.03359 0.0222-0.0111 0.0465-0.02075 0.0693-0.03152 0.64854 0.07926 1.3301 0.17656 2.0474 0.29611-0.33308-0.20972-0.6584-0.43058-0.97979-0.65629 0.83877-0.19498 1.8177-0.2682 2.7885-0.27337zm0.31678 3.6468c0.26346-8.78e-4 0.51879 0.0036 0.76584 0.01137l-3.2634 2.8556c-0.96289-0.6718-1.8892-1.3956-2.7683-2.143 1.8682-0.54261 3.7016-0.71877 5.2658-0.72399zm-121.11 0.6351c0.54088 0.0038 1.0778 0.02067 1.6004 0.04909-0.3663 0.4209-0.75217 0.80029-1.1472 1.0966 1.1515-0.63975 2.1165-0.59834 2.8071-0.38551-0.50153 0.56108-1.177 1.2528-2.0572 2.0273l-3.2613-2.7554c0.66891-0.02302 1.3631-0.03696 2.0583-0.03204zm-12.198 0.0093c0.29602 0.0055 0.58759 0.01283 0.8754 0.02274l-0.45889 0.38757zm47.332 1.725c0.3726 8.2e-4 0.74027 0.01526 1.0893 0.04651-0.30486 0.1817-0.59078 0.32774-0.84543 0.42323 1.0291-0.11435 2.3543-0.12984 3.528-0.11059-0.6632 0.55549-1.4258 1.1312-2.2691 1.6671-0.86836-0.62832-1.7348-1.3309-2.5156-1.9994 0.33383-0.01669 0.6743-0.02762 1.0129-0.02687zm79.856 1.5317c0.74049 0.0048 1.5244 0.03245 2.3425 0.08733l-1.311 1.1472-1.8578-1.2283c0.27137-0.0042 0.54241-8e-3 0.82631-0.0062zm-112.55 0.56638c0.21493 0.02642 0.41347 0.06206 0.59635 0.10284-0.06694 0.07386-0.13659 0.14833-0.20929 0.22428zm24.156 0.7829c0.60674-0.0044 1.2285 0.0124 1.8107 0.03824-0.58498 0.5534-1.2227 1.1379-1.8784 1.7105-0.72492-0.43788-1.4551-0.98209-2.1704-1.588 0.6243-0.10999 1.4158-0.1548 2.2381-0.16071zm8.5023 0.0021c0.0126-1.64e-4 0.02513 1.49e-4 0.03772 0-0.28082 0.14206-0.56838 0.27623-0.86145 0.40256-0.13284-0.12387-0.26324-0.24534-0.39119-0.36639 0.3927-0.01743 0.80277-0.03082 1.2149-0.03617zm1.9089 0.14521c0.30687-0.0031 0.61264 0.0025 0.91519 0.01137 0.12925 0.02256 0.2527 0.04754 0.36639 0.07596-0.03764-0.02195-0.07584-0.04567-0.11369-0.06821 0.21838 0.0084 0.43334 0.01886 0.64286 0.03152l-2.3776 2.1317c-0.73379-0.61637-1.4621-1.2691-2.1373-1.8981 0.78536-0.19737 1.742-0.2746 2.7042-0.28422zm-25.913 1.3229c0.91661-0.0077 1.9064 0.02868 2.8272 0.07958-1.0452 0.96891-2.228 2.0057-3.4143 2.9182h-1.8521l-2.4169-2.0417c1.173-0.07407 2.7548-0.08566 4.269 0.18965-0.67723-0.30099-1.2825-0.62388-1.8268-0.9555 0.61754-0.12803 1.4736-0.18227 2.4138-0.19017zm12.584 0c1.1729 0.0099 2.217 0.09102 2.8257 0.29921-0.95375 0.83179-1.9363 1.6281-2.8293 2.2335-0.98582-0.79122-1.9522-1.6452-2.8236-2.4531 0.92078-0.0509 1.9106-0.08728 2.8272-0.07958z" fill="url(#linearGradient1930)"/><path id="middle-trees" d="m22.49 66.675s-2.6458 8.4667-4.4979 9.7896c0.77742-0.22212 1.6943-0.25769 2.497-0.22428-1.527 2.1264-3.8541 4.9463-6.7303 7.1034h6.7272l-8.8439 8.4667c1.8141-0.68027 4.0644-0.77712 6.0451-0.66611-1.5838 1.7238-3.4473 3.693-5.4229 5.6596-0.53168-0.6465-1.0202-1.2673-1.4428-1.8185h2.1435c-2.1167-2.9104-3.7042-8.7312-3.7042-8.7312s-0.19251 0.7057-0.53227 1.7472c-1.8447-2.5281-3.1719-7.8326-3.1719-7.8326s-1.5875 6.35-3.7042 8.4667c0.78156-0.33495 1.5627-0.4342 2.205-0.43718-0.73656 1.1131-1.744 2.5084-2.9869 3.9781a79.375 79.375 0 0 0 0.23151 1.2216h1.7203l-1.3477 1.9699a79.375 79.375 0 0 0 77.701 63.382 79.375 79.375 0 0 0 77.967-64.791c-0.73644-0.76206-1.4419-1.5488-2.0913-2.3146 0.78034 0.01484 1.6306 0.06682 2.4986 0.16278a79.375 79.375 0 0 0 0.19017-1.2785c-1.8741-1.9302-3.4684-4.0217-4.6188-5.6818 0.92124-0.0211 2.2397 0.05462 4.1062 0.34933-1.9666-1.7208-3.4187-3.5554-4.4106-5.0271h1.2356l-2.9104-6.8792-2.9104 6.8792h1.2356c-0.99186 1.4717-2.4439 3.3063-4.4106 5.0271 1.8665-0.29471 3.185-0.37043 4.1062-0.34933-1.467 2.117-3.6484 4.9401-6.2229 7.2285 1.4713-0.29426 2.9779-0.40598 4.2928-0.43098-1.8582 2.1911-4.1586 4.5657-6.4094 5.9872 1.1898-0.27458 2.7911-0.35715 4.377-0.35037l-1.4666 1.9379c0.54341-0.0988 1.142-0.13265 1.7565-0.12299l-5.9898 4.3563h2.434l-1.111 0.92604c1.0302-0.32775 2.6248-0.60487 4.254-0.82733l-6.6978 4.7842c-1.7094-1.4569-3.1949-2.915-4.4158-4.208 1.761-0.21388 3.9391-0.17903 6.0658 0.64802-1.8841-1.3044-4.6373-3.9549-6.7458-6.0885 1.3017-0.09512 2.9678 0.04785 4.8938 0.79685-1.1855-1.1855-4.0922-4.7397-6.0404-7.1562 1.0104-0.11172 2.4135-0.05004 4.1884 0.54157-1.8121-1.5333-3.3988-3.5024-4.4995-5.0271h1.3245c-1.5875-2.1167-2.9104-6.8792-2.9104-6.8792s-1.3229 4.7625-2.9104 6.8792h1.3245c-1.1006 1.5247-2.6874 3.4938-4.4995 5.0271 1.7748-0.59161 3.178-0.65329 4.1884-0.54157-1.5283 1.8956-3.6361 4.4779-5.054 6.0854-0.58206-1.2676-0.72192-2.1043-0.72192-2.1043s-0.26459 1.5875-1.5875 3.7042h0.894c-0.43053 0.65018-1.0716 1.5005-1.9523 2.3812h1.6805c-0.6961 1.0758-1.6831 2.4646-2.6748 3.4008-1.6695-1.1846-3.1251-2.5409-4.2711-3.7372 1.1882-0.0474 2.7132 7e-3 4.4716 0.33641-2.0859-1.2747-3.7147-2.8667-4.887-4.2535 0.9507 0.01196 2.2165 0.14628 3.8287 0.54932-1.5869-1.2695-3.4543-3.6285-4.6989-5.3175 0.78479 0.04152 1.857 0.17868 3.1114 0.555-1.4126-0.98878-2.5982-2.5051-3.3972-3.7042h1.016c-1.3229-2.1167-2.1167-5.2917-2.1167-5.2917s-0.79375 3.175-2.1167 5.2917h1.016c-0.69741 1.0466-1.6892 2.3344-2.8696 3.3026-1.9689-3.6168-2.6443-6.8745-2.6443-6.8745s-0.63982 3.0877-2.4903 6.5882l-3.5409-4.7723c0.79838-0.04633 1.9639 0.10257 3.6499 0.69763-4.2333-3.175-5.2917-8.2021-5.2917-8.2021s-1.0583 5.0271-5.2917 8.2021c1.686-0.59506 2.8515-0.74396 3.6499-0.69763l-4.4437 5.9893c1.2825-0.32062 2.3449-0.44626 3.205-0.46664l-3.9987 5.2291c1.424-0.26699 2.6673-0.35405 3.6918-0.35243-1.9196 1.9549-4.5162 4.2333-7.2518 5.5718l-5.965-5.2193-10.431 9.1271c-2.1721-1.6027-5.1132-3.8694-7.7871-5.9521 2.0684 0.19457 4.4901 0.51722 7.1055 1.0583-2.6425-1.9085-6.5517-5.2951-9.541-7.9576 2.0124 0.11317 4.6929 0.40387 7.9535 1.0785-2.5059-1.8098-5.7216-4.7007-8.2279-7.0507 1.5063-0.03202 3.4494 0.12538 5.8467 0.70073-1.2093-0.691-4.9851-4.8493-7.4796-7.6729h4.0401l-4.7144-6.2859c0.52594 0.02383 1.203 0.15033 2.0686 0.46509-2.3812-2.9104-3.7042-8.4667-3.7042-8.4667s-1.3229 5.5563-3.7042 8.4667c0.86558-0.31476 1.5427-0.44126 2.0686-0.46509l-4.7144 6.2859h4.0401c-2.4946 2.8236-6.2704 6.9819-7.4796 7.6729 2.3973-0.57535 4.3404-0.73275 5.8467-0.70073-2.5063 2.35-5.7221 5.2409-8.2279 7.0507 3.2607-0.67462 5.9411-0.96532 7.9535-1.0785-2.1417 1.9076-4.7313 4.1647-7.0239 6.0141-1.2711-0.89673-2.4729-1.8454-3.3678-2.5802 0.87286-0.10587 1.897-0.11539 2.4381 0.29042-0.95899-0.95899-1.7858-1.9152-2.4355-2.7187 0.57805-0.04785 1.2014 0.0072 1.6418 0.33745l-2.5626-2.99c0.51876-0.05036 1.2569-0.07954 1.7689 0.07958l-1.9048-2.1167h0.84646l-1.3229-2.6458-1.3229 2.6458h0.84646l-1.9048 2.1167c0.51206-0.15915 1.2501-0.12944 1.7689-0.07906l-2.5626 2.9895c0.44036-0.33027 1.0637-0.38532 1.6418-0.33745-0.49513 0.61233-1.0942 1.3129-1.7761 2.0371-0.76198-0.82818-1.3124-1.6254-1.6784-2.2288h1.0191l-1.5875-3.175-1.5875 3.175h1.0191c-0.22009 0.36282-0.50529 0.79408-0.86506 1.2625-2.2616-2.2161-4.4092-4.4783-6.1991-6.4265 1.9807-0.11101 4.2311-0.01416 6.0451 0.66611l-8.8439-8.4667h6.7272c-2.8762-2.1572-5.2034-4.977-6.7303-7.1034 0.80274-0.03342 1.7196 0.0022 2.497 0.22428-1.8521-1.3229-4.4979-9.7896-4.4979-9.7896zm-15.434 21.523c0.45885 0.0021 0.98891 0.05501 1.5389 0.20619-0.13802 0.41125-0.29506 0.86109-0.46922 1.3327-0.40047-0.55109-0.76038-1.0715-1.0697-1.5389zm103.74 5.1738c-0.65038 0.88262-1.4676 1.9442-2.3306 2.943-0.52317-0.77161-0.9912-1.5525-1.3911-2.2701 0.54122 0.07649 1.1457 0.20217 1.6686 0.41134-0.14194-0.23656-0.27742-0.47261-0.40824-0.70745 0.97662-0.24369 1.8159-0.34256 2.4613-0.37672zm-10.021 0.61753c0.52097 0.01234 1.1163 0.06339 1.7901 0.17312-0.0569 0.09775-0.11382 0.19556-0.1726 0.29352 0.20431-0.08172 0.42104-0.15086 0.64182-0.20929 0.26027 0.05033 0.53072 0.10952 0.81235 0.17777-0.36444 0.63511-0.7778 1.3074-1.2314 1.9709zm3.2861 0.05529c-0.0544 0.09754-0.10954 0.19637-0.1664 0.29611l-0.17931-0.24185c0.11747-0.02067 0.23253-0.03826 0.34571-0.05426zm5.8642 4.0954c-0.0128 0.01518-0.0263 0.03077-0.0393 0.04599-0.0129-0.01491-0.0259-0.02947-0.0388-0.04444 0.0263-5.09e-4 0.0522-0.0012 0.078-0.0015zm-94.077 0.03256c0.35573 0 0.70882 0.0056 1.0563 0.0155l-1.7901 1.7901c-0.54307-0.54045-1.0841-1.1216-1.6061-1.712 0.76907-0.0653 1.5601-0.09353 2.3399-0.09353zm13.281 0c1.2342 0 2.498 0.06685 3.6546 0.24805-0.15895 0.17669-0.32706 0.35496-0.5054 0.5333h1.2986l-2.357 1.8521c0.85349-0.42675 1.8594-0.3943 2.6076-0.27337l-1.8573 1.5529-3.8974-3.8974c0.34745-0.0099 0.70054-0.0155 1.0563-0.0155zm79.387 0.42891c0.32717-0.0024 0.65357 0.01262 0.96273 0.05064-0.42129 0.46921-0.89146 0.95322-1.4113 1.4345-0.32687-0.48009-0.61977-0.95031-0.87902-1.3984 0.41459-0.04726 0.87053-0.08349 1.3276-0.08682zm18.269 0.05891c0.21132 0.0023 0.41452 0.01157 0.60978 0.02584-0.8725 0.88286-1.8523 1.8506-2.8391 2.7792-0.45708-0.53698-0.82046-1.0362-1.0966-1.4531h0.89401c-0.20885-0.33416-0.39114-0.65498-0.55036-0.9586 1.1104-0.30039 2.1129-0.40274 2.9822-0.39326zm-88.719 0.20567c0.29631 0.0027 0.59768 0.02732 0.88367 0.06201-0.3944 0.32387-0.85034 0.69057-1.3436 1.0749l-1.0439-0.82011 5.17e-4 -5.17e-4c0.15629-0.10438 0.34715-0.17838 0.56017-0.22841h0.447c-0.02086-0.02086-0.04091-0.04167-0.0615-0.06253 0.17961-0.01907 0.36704-0.02707 0.55759-0.02532zm63.016 0c0.76619-0.0012 1.6556 0.0477 2.651 0.18397-0.28244 0.46829-0.59988 0.95621-0.95343 1.45-0.60841-0.55199-1.1778-1.1047-1.6976-1.634zm-64.811 0.08785h0.50126c-0.07218 0.07394-0.14485 0.14817-0.21859 0.22221zm0.63975 1.4997c0.03597-3.6e-4 0.07222 1e-4 0.10852 5.1e-4 -0.18862 0.14328-0.37977 0.28772-0.57568 0.43254l-0.42323-0.35399c0.26983-0.0436 0.57268-0.0759 0.89038-0.0791zm0.64596 0.91157c0.28102-3e-3 0.5566 3e-3 0.81907 0.015l-0.75499 0.49092-0.58549-0.48937c0.17482-9e-3 0.3492-0.0148 0.52142-0.0165zm5.8467 0c0.63747 6e-3 1.304 0.0585 1.9156 0.1912-0.38205 0.30771-0.75226 0.60041-1.111 0.87902l-1.6237-1.0552c0.26247-0.0116 0.53805-0.0178 0.81907-0.015zm6.5634 1.0284c-1.0246 0.79803-2.0677 1.6057-3.1156 2.4123l-0.73432-1.9358c1.38-0.21146 2.6721-0.36567 3.8499-0.47646zm-4.0204 0.50229-0.20412 0.53692-0.61857-0.40204c0.27687-0.0468 0.55192-0.0926 0.82269-0.13488zm-3.5941 0.092c0.29402 0.0101 0.63356 0.0348 1.0273 0.0786-0.1737 0.12967-0.35413 0.26693-0.51832 0.3855 0.46873-0.097 0.93114-0.18663 1.387-0.27026 0.44308 0.0673 0.93581 0.15334 1.4893 0.26355l-0.82166 2.1668zm82.677 1.0278c0.59133 5e-3 1.1565 0.0469 1.6852 0.11111-0.30359 0.32154-0.62309 0.65253-0.95911 0.99219-0.30861-0.34746-0.61048-0.72209-0.89659-1.1023 0.0568-2.6e-4 0.11416-1e-3 0.17053-1e-3zm-37.491 0.49455h4.423c-0.77349 0.69643-1.5307 1.3623-2.2112 1.9353zm29.419 1.7642v5.2e-4c0.49823 5e-3 1.0072 0.0255 1.5115 0.0672-0.15729 0.11197-0.31317 0.20825-0.46612 0.28473 0.46169-0.0839 0.89336-0.14608 1.2986-0.1943 0.3701 0.0504 0.73341 0.11372 1.0826 0.1943-0.14115-0.0863-0.28084-0.17415-0.41962-0.26355 0.34789-0.0298 0.66442-0.0471 0.95395-0.0568-0.54282 0.66081-1.2175 1.3757-2.0392 2.0764-0.9282-0.6886-1.7787-1.4059-2.5399-2.1053 0.20373-3e-3 0.40947-5e-3 0.61805-3e-3zm-66.45 1.5234-1.8976 1.5963-0.02997-0.031-0.51728-1.3627c0.85566-0.0841 1.674-0.15052 2.4448-0.20257zm12.225 0c2.6802 0.18096 5.9544 0.53183 9.2335 1.2103-0.23582-0.17031-0.49573-0.36147-0.75809-0.55448 1.9443-0.17121 3.54-0.25968 4.8405-0.29301l-5.0979 4.2871h-2.6887zm24.201 0.36277c0.15009 4e-3 0.31073 0.01 0.4687 0.015-0.0302 0.0131-0.06369 0.03-0.08992 0.0387h1.0201c1.0832 0.0523 2.3121 0.13456 3.7424 0.26459l-0.30231-0.26459h1.5105c-1.122 0.88034-2.2798 1.769-3.297 2.513zm29.864 1.4356c0.15142-8e-4 0.30604 1e-3 0.46199 3e-3 -0.10344 0.068-0.20741 0.13583-0.3142 0.20257 0.47249-0.0881 1.6825-0.0444 2.8779 0.0305-0.60163 0.55913-1.2574 1.1081-1.9311 1.5715-0.62413-0.50394-1.2656-1.1267-1.8831-1.7875 0.25627-0.01 0.51565-0.0187 0.78858-0.0202z" fill="url(#linearGradient1970)"/><path id="bottom-trees" d="m33.867 110.07s-2.1167 6.6146-3.9688 8.4667h1.9596c-1.6986 2.1764-4.0962 5.0959-5.6637 6.35 2.3537-0.50436 3.9854-0.6877 5.1175-0.70383-2.2897 2.8777-5.5727 6.8758-7.4988 8.6413 2.1767-0.32247 3.9582-0.44789 5.3862-0.46715-1.4428 1.5364-3.0201 3.1759-4.4452 4.5749a79.375 79.375 0 0 0 2.2655 2.0376c0.4965-0.0268 0.97462-0.0419 1.4263-0.0455-0.21705 0.20822-0.47234 0.44622-0.70487 0.66663a79.375 79.375 0 0 0 51.635 19.163 79.375 79.375 0 0 0 42.89-12.647c-0.64583-0.65284-1.2675-1.2936-1.8495-1.9053h3.5879c-0.54207 0.63046-1.132 1.2849-1.7384 1.9053a79.375 79.375 0 0 0 6.5071-4.6023c-1.1376-2.3273-2.0371-5.2405-2.0371-5.2405s-1.084 3.5223-2.3792 5.9138c-1.1486-1.1922-2.493-2.6761-3.7858-4.1393 1.3105 0.0296 2.9105 0.12747 4.8421 0.34209-2.2692-1.6641-5.1423-5.3161-7.1882-8.1401 1.0869 0.0188 2.6248 0.14389 4.8069 0.46716-1.8208-1.2138-3.9883-3.8186-5.5072-5.8208h2.0676c-1.8521-1.8521-3.9688-8.4667-3.9688-8.4667s-2.1167 6.6146-3.9688 8.4667h2.0676c-1.5189 2.0023-3.6864 4.607-5.5072 5.8208 2.1821-0.32327 3.72-0.44839 4.807-0.46716-2.0459 2.8239-4.919 6.476-7.1882 8.1401 1.9316-0.21462 3.5316-0.31252 4.8421-0.34209-1.7143 1.9402-3.5295 3.9322-4.8405 5.2054-0.83177-0.73171-1.7565-1.7205-2.5843-2.6665 0.98288-0.0654 2.1166 7e-3 3.112 0.44907-1.2325-0.92437-2.9097-2.9102-4.099-4.4111 0.98052-0.0844 2.196-0.11229 2.776 0.17776-1.1438-0.85789-2.2872-2.1593-3.097-3.175h0.98031c-1.3229-1.852-2.1167-4.6964-2.1167-4.6964s-0.79375 2.8443-2.1167 4.6964h0.9803c-0.8098 1.0157-1.9531 2.3171-3.097 3.175 0.5801-0.29005 1.7955-0.26221 2.7761-0.17776-1.1893 1.5009-2.8665 3.4867-4.099 4.4111 0.99539-0.4424 2.1291-0.51448 3.112-0.44907-0.59018 0.67444-1.229 1.3661-1.849 1.9756-2.0596-2.0637-3.3862-3.595-4.2375-4.7015h1.9162c-1.8521-1.8521-3.4396-7.1438-3.4396-7.1438s-1.5875 5.2917-3.4396 7.1438h1.9162c-0.85983 1.1177-2.2019 2.667-4.2974 4.7625h3.4897c-0.65206 1.0116-1.4071 2.1067-2.2205 3.1455-0.80834-0.42869-1.9348-1.5646-2.852-2.5854 0.53181 9e-3 1.2226 0.0719 2.112 0.23358-1.0622-0.60695-2.1237-1.9093-2.8365-2.9104h1.7782l-1.8407-2.1167h0.78238c-0.79375-1.0583-1.5875-3.0427-1.5875-3.0427s-0.79375 1.9844-1.5875 3.0427h0.78238l-1.8407 2.1167h1.7782c-0.71282 1.0012-1.7744 2.3035-2.8365 2.9104 0.88938-0.16171 1.5802-0.22423 2.112-0.23358-0.93743 1.0433-2.0942 2.2091-2.9058 2.6148 1.3898-0.19855 2.3698-0.24813 3.052-0.23255-0.89094 0.97175-2.182 2.1105-3.8458 2.8784h2.5135l-1.879 1.6102c-1.3649-0.99786-2.5418-1.9856-3.5367-2.9032 1.2475 7e-3 2.7521 0.0692 4.4896 0.23461-1.2219-0.67885-3.4861-2.8015-5.4038-4.7093 1.0955-2e-3 2.516 0.0523 4.3455 0.21136-1.3016-0.65081-3.1789-2.606-4.7511-4.425 0.79654-8e-3 1.7601 0.0399 2.899 0.19172-1.2655-1.1249-2.8302-3.2958-4.0184-5.0834 0.75949-0.022 1.806 0.11261 3.2246 0.58549-0.77727-0.77727-2.3657-2.5933-3.5528-3.9688h1.4361c-1.3229-1.3229-2.9104-5.6885-2.9104-5.6885s-1.5875 4.3656-2.9104 5.6885h1.4361c-1.187 1.3754-2.7755 3.1915-3.5528 3.9688 1.4186-0.47288 2.4651-0.60748 3.2246-0.58549-1.1375 1.7114-2.6192 3.7716-3.854 4.9315-0.7404-0.9371-1.4553-1.8907-2.0929-2.7683 1.1578-0.0714 2.6379-0.10201 4.3098 0.01-0.80598-0.48358-3.1796-3.2223-4.9144-5.2917h1.7394c-1.8521-2.1166-3.7042-7.9375-3.7042-7.9375s-1.8521 5.8208-3.7042 7.9375h1.7394c-1.7348 2.0693-4.1084 4.8081-4.9144 5.2917 1.6719-0.11146 3.152-0.0808 4.3098-0.01-1.7879 2.4609-4.1782 5.525-6.0585 7.12-0.9645-1.0333-2.1311-2.7242-3.0809-4.1997h2.1838c-1.1214-0.84102-2.1684-2.2759-2.9052-3.4396h1.3177c-1.3229-1.3229-2.3812-5.0271-2.3812-5.0271s-1.0583 3.7042-2.3812 5.0271h1.3177c-0.37271 0.58865-0.82506 1.2464-1.326 1.8619-1.4606-1.4275-3.0942-3.1236-4.5842-4.7103 1.428 0.0193 3.2096 0.14468 5.3862 0.46715-1.9261-1.7656-5.2091-5.7636-7.4988-8.6413 1.1321 0.0161 2.7638 0.19947 5.1175 0.70383-1.5676-1.2541-3.9651-4.1736-5.6637-6.35h1.9596c-1.8521-1.852-3.9688-8.4667-3.9688-8.4667zm109.01 3.4396s-1.5875 4.7625-3.9688 8.7312h1.7932c-1.7439 2.2312-4.1933 5.1278-6.0265 6.35 2.1819-0.32325 3.7939-0.44888 4.9837-0.46767-2.3228 3.1503-5.4246 7.0528-7.6295 8.6698h2.1084a79.375 79.375 0 0 0 11.517-13.806c-0.19896-0.24846-0.41681-0.5099-0.60151-0.74621h1.0702a79.375 79.375 0 0 0 0.37568-0.59738c-2.1862-3.8336-3.6215-8.1339-3.6215-8.1339zm-76.782 24.943c0.1048-8.2e-4 0.20687-5.1e-4 0.30644 5.2e-4 -0.46441 0.53731-0.9556 1.0858-1.4506 1.6097-0.39838-0.4686-0.79666-0.95569-1.1891-1.45 0.88684-0.10855 1.6644-0.15494 2.3332-0.1602zm-27.334 0.47129c1.3206-0.0129 2.8698 0.0637 4.5878 0.29921-0.53875 0.81831-1.1244 1.6654-1.6924 2.4071-1.0762-0.98625-2.0572-1.9021-2.8954-2.7063zm54.324 3.6897h3.3683c-0.73419 0.71634-1.4383 1.309-1.9952 1.5875 1.0949-0.24332 2.5251-0.26227 3.7512-0.21239-0.72405 0.75949-1.5736 1.5525-2.5156 2.2562-0.96148-1.1778-1.8539-2.4605-2.6086-3.6313zm-38.408 0.29817c-1.0191 1.2337-2.1008 2.4742-3.1073 3.4985-0.82007-0.90868-1.7355-2.0027-2.6024-3.0732 0.70772 0.0371 1.5025 0.13613 2.3637 0.33486-0.21182-0.12104-0.45145-0.3193-0.70952-0.57361 1.6036-0.11684 2.9556-0.17276 4.0556-0.18655zm8.6537 0c0.6823 9e-3 1.4654 0.0336 2.3368 0.078-0.40923 0.40388-0.82689 0.81041-1.247 1.2098-0.36684-0.42497-0.73257-0.85527-1.0899-1.2878zm41.025 1.0547c0.22848-1e-3 0.45902 3e-3 0.68885 0.01-0.0944 0.0818-0.18448 0.15782-0.2682 0.2248h6.0549c-1.4201 1.4925-3.0596 3.1484-4.7811 4.7646-0.6492-0.51155-1.253-1.0525-1.8025-1.5896h3.4391c-1.6563-0.88336-3.1273-2.1779-4.2804-3.3874 0.30651-0.0125 0.62569-0.0208 0.94929-0.0222zm-20.882 1.5865v5.2e-4c0.65052 2e-3 1.533 0.0599 2.713 0.22582-0.38446 0.49022-0.78234 0.96603-1.188 1.4159-0.71224-0.53849-1.3125-1.1132-1.7947-1.6392 0.08527-2e-3 0.17495-3e-3 0.26975-3e-3zm-28.709 2.6644-2.3719 2.6913c-1.0417-0.85667-2.0326-1.6816-2.9735-2.4743h4.2928c-0.08935-0.0511-0.18963-0.11985-0.29869-0.20361 0.48067-0.01 0.9333-0.0139 1.3513-0.0134zm8.478 0c0.19229-2.6e-4 0.40898 3e-3 0.61443 5e-3 -0.11532 0.0978-0.23124 0.1958-0.35037 0.29455zm22.219 1.0108h1.8707c-0.22876 0.31054-0.47396 0.6352-0.73536 0.97307zm-6.581 0.88212c0.27-3e-3 0.5276 0.0143 0.76998 0.0439l-1.1043 0.90124c-0.37337-0.24949-0.73153-0.49949-1.0811-0.74931 0.49574-0.13435 0.97236-0.19167 1.4154-0.19585zm5.7537 0c0.55384 5e-3 1.1597 0.0919 1.7906 0.31109-0.27587 0.35297-0.56972 0.72046-0.88263 1.1023l-1.6779-1.3694c0.24238-0.0296 0.49998-0.0465 0.76998-0.0439zm-18.702 0.53278v5.2e-4c-0.08997 0.0983-0.18989 0.20432-0.28267 0.30489l-0.26407-0.29921c0.1875-3e-3 0.37098-5e-3 0.54674-6e-3zm7.3127 6e-3c0.86981 0.0146 1.8668 0.0615 2.9662 0.15864l-0.01033 8e-3c0.0053-3e-3 0.01067-5e-3 0.01602-8e-3 0.72615 0.0643 1.4966 0.1502 2.3084 0.2651l-2.7451 2.2407c-0.93243-0.94295-1.7842-1.8441-2.5352-2.665zm31.569 0.43201h3.4902l-1.4738 1.5978z" fill="#1f9b99"/><path id="branch" d="m27.056 60.896c-0.2832-0.04918-0.4173 0.58806-0.52502 2.0769-0.02933 0.34543 0.03472 0.69385 0.19172 1.3219 0.26458 0.79373 0.52916 2.3812 1.0583 3.4395 1.3229 2.1167 3.0689 4.1196 5.027 5.8207 0.79374 0.52916 3.1749 1.3229 4.2332 2.1167 2.9103 1.5875 5.027 3.9687 5.5561 3.9687 0 0 0.26458 1e-6 0 0.26457-1.0583 0.26457-2.3812 0.26457-3.1749 0.26457-0.26458 1e-6 -4.2332 0.52916-5.2916 0.79373-1.8521 0.52916-6.3499 1.3229-7.1437 1.3229h-8.4666c-0.26458 1e-6 -1.8521-0.26457-3.1749-0.79373 0 0-2.1167-1.3229-2.3812-1.0583-0.26458 0.26457-0.26458 0.52916-0.26458 1.0583 0 0.26457 0.26458 0.79373 0.52916 1.0583 0.52915 0.79373 1.5875 2.1167 3.9687 3.4395 0.26458 1e-6 0.26458 0.52916 0 0.52916-1.5875 0.26457-3.9687 1.3229-7.1437 2.9103-3.7041 1.8521-7.8933 4.8089-8.4225 5.8673-0.12402 0.10335-0.26458 0.79373-0.52916 1.0583 0 0-1.5875 1.3229-1.0583 1.3229 0 0 0.52916 0 0.79374 0.26457 0 0.26457-5e-7 0.52916-0.52916 0.79373-0.26458 0.26457-0.26458 1.0583 0 1.3229 0 0 0.26458 0.26457 1.0583-0.26458 0.79374-0.52915 1.3229-0.52916 2.1167-1.0583 2.0852-1.4597 6.3058-4.8089 8.4225-6.1318 2.3812-1.5875 4.4978-2.3811 5.2916-2.3811 0 0 1.0583 1e-6 2.6458-0.26457 0 0 0.79374-0.26457 2.1167-1.0583 1.8521-0.79373 2.3813-1.0583 5.8207-1.8521 4.7383-1.1638 8.0871-1.8435 12.965-2.6457 0.52916 0 0.26458 0.52916 0 0.52916l-3.1749 2.1167c-0.79374 0.52916-1.5875 1.3229-2.3812 2.3811 0 0-1.3229 1.5875-1.5875 2.1167 0 0-1.0583 1.5875-1.5875 2.9103-0.26458 0.52916-0.79374 1.8521-1.0583 3.4395 0 0.26457 0 0.79373 0.52916 1.0583 0.79374 0.26457 1.0583 0.26457 1.5875 0 0.26458-0.26457 0.79374-0.52916 1.0583-0.79373 0 0 0.79374-0.79373 1.0583-1.8521 0.26458-0.79373 1.3229-1.5875 1.5875-2.1167 0.52916-1.0583 1.8521-2.9103 2.6458-3.7041 0 0 1.3229-1.5875 3.1749-2.6457 0.26458 1e-6 2.6458-1.8521 3.9687-2.3811 0 0 5.027-0.79373 6.0853-0.52916 1.8521 0.26457 3.1749 0.52916 5.8207-0.52916h41.803c1.0583 1e-6 2.3812-0.26457 4.2332-0.52916 1.3229-0.52916 5.2916-1.0583 5.2916-1.0583 2.3812-0.26457 8.202-1.8521 8.202-1.8521 5.295-0.69975 12.171-1.5875 18.256-2.1167 6.0853-0.26457 11.906-0.26457 17.992 0 1.5842 0 3.7375 0.19391 4.4963 0.41547l-0.40824-7.929c-0.53673-0.07426-1.3251-0.15916-2.236-0.15916-4.7624-0.26457-9.7894-0.26457-17.992 0 0 0-4.2332 1e-6 -6.8791 0.26457-0.26457 1e-6 -2.9104 0.26457-5.027 1.0583-2.1167 0.52916-5.8207 1.3229-10.848 1.8521-1.8521 0.52916-3.4395 1.0583-5.2916 1.8521-0.26147 0.13074-1.5875 0.52916-1.3229 0.26457 1.3229-1.0583 0-1.3229-5.2916 0.26457l-44.184 2.1167s-2.1167 1e-6 -4.2332-0.26457c-1.841-0.33473-3.9687-0.79373-5.5561-0.79373 0 0-1.0583 0-2.9103-1.0583 0 0-1.8521-0.79373-3.7041-1.3229 0 0-1.3229-0.26457-1.3229-0.52916 0 0-0.26458-0.52915-0.52916-0.52916-1.8059-0.58045-2.9103-1.3229-4.4978-2.6457-1.5875-1.3229-2.3813-1.8521-3.9687-3.4395-0.26458-0.26457-0.52916-0.26457-0.79374-0.52916-1.0837-0.71364-1.6855-1.5118-2.1167-2.6457-0.52915-1.5875-0.79374-1.8521-1.5875-2.9103-0.45871-0.79029-0.76933-1.2438-0.98958-1.2821z" fill="#3a3730"/><path id="owl" d="m81.756 26.988c3.175-0.02108 6.35 0.06739 9.525 0.26458 1.8521-2.9104 5.2917-5.2917 5.2917-5.2917 1.8521-0.79375 1.8521 1.0583 1.8521 1.0583-0.52917 3.4396-1.5875 5.8208-1.5875 5.8208 2.1167 0.52917 2.3813 2.3813 2.3812 3.175 3.7042 3.9688 4.7625 8.4667 4.7625 10.848 0 0.26458 0 1.3229-0.26458 2.1167-0.26459 1.0583-0.26459 1.5875 0 2.1167 2.1167 3.175 2.9104 6.0854 3.175 13.758 0.26458 13.229-3.7042 15.346-3.7042 15.346-0.79375 0.79375-2.5731 5.1115-2.3812 6.6146-0.52917 2.3812-1.3229 4.7625-3.2613 7.3577-1.2366 3.7548-2.5595 5.3423-4.147 7.1944-0.52916 2.9104-2.6458 4.2333-3.4396 4.7625-1.8521 1.0583-1.8521 3.7042-1.5875 5.8208-0.26458 0.52917-0.79375 1.0583-1.3229 1.3229 0.58982 0.41227 1.2332 0.81982 0.79375 1.3229-1.5467 1.7722-2.9678 3.5493-5.2917 5.2917-0.79375 0-0.79375 0.52917-1.0583 0.26458-0.52917-0.52917-1.0583-0.26458-1.3229 0-1.1845 3.0312-5.0271 2.9104-6.8792 4.7625-0.95592 0.50042-2.1756 0.5524-3.4396 0.52917-3.2527 1.5371-6.1331 0.53867-8.7312-2.3812-0.26458-0.26458-0.79375-8.9958-0.79375-12.965-2.5477-0.14462-2.6619-3.8755-2.9104-7.4083 0-0.52916 1.0583-7.1437 1.3229-8.2021-1.2671-0.76316-0.60323-3.7433-0.26458-6.35 1.6106-4.5179 1.0934-8.823 1.5875-13.229 0.55759-4.3544 1.0219-8.7296 2.1167-12.965 0.73502-2.9321 3.945-7.2091 6.35-9.7896 3.9688-1.8521 5.2917-3.7042 5.5562-8.9958 0.29004-3.1428 1.1214-5.9411 2.3812-8.4667-2.1701-2.3745-2.1246-4.944-0.52917-6.35-0.0741-5.9657 1.5659 1.5153 5.8208 2.6458z"/></g><path id="branch-extension" d="m202.19 89.209c-4.6599 2.2607-9.3573 3.6257-14.552 5.291-0.20099 0.34728-2.4038 0.35844-2.9104 0-0.47127-0.46913-3.8985-0.67915-3.8985-0.67915-0.59937-0.11404-0.0702 7.8235 0.40824 7.9288 7.8938 0.18629 15.588 1.0212 20.955 2.8063z" fill="#3a3730" stroke-width="0"/><g fill="none"><circle id="outer-circle" cx="101.86" cy="101.86" r="100.54" stroke="#52a7ac" stroke-width="2.6458"/><circle id="text-guide" transform="rotate(-90)" cx="-101.86" cy="101.86" r="89.443" display="none"/><path d="m101.87 186.02c-46.538 0-84.152-37.614-84.152-84.152 0-46.538 37.614-84.15 84.152-84.15 46.538 0 84.15 37.612 84.15 84.15 0 46.538-37.612 84.152-84.15 84.152z" color="#000000"/></g><g stroke-width="2.6458"><path d="m147.16 17.963-7.4238 6.1479c-0.38899 0.30147-0.71612 0.4907-0.98185 0.56792-0.25848 0.064033-0.54382 0.036217-0.85577-0.083716l-0.56482 0.74569c0.11871 0.065252 0.34666 0.1823 0.68368 0.35037 0.35021 0.17532 0.73649 0.37881 1.1586 0.61082 0.44848 0.24651 0.89642 0.50999 1.3436 0.79013 0.46037 0.28739 0.75281 0.47396 0.87747 0.55966l0.53175-0.68678-0.0155-0.11162-0.85112-0.46767c-0.32976-0.18126-0.54179-0.35811-0.63613-0.5302-0.09434-0.17209-0.08345-0.36359 0.03255-0.57464 0.03626-0.065953 0.18378-0.22537 0.44287-0.47801l1.3591-1.1596c0.79537 0.33412 1.3843 0.60623 1.7668 0.81649 0.83101 0.45676 1.3749 0.76423 1.6314 0.92242l-0.36277 1.7844c-0.03816 0.28818-0.11499 0.53826-0.23099 0.74931-0.10151 0.18467-0.27334 0.26215-0.5147 0.23254-0.22817-0.022359-0.62985-0.16604-1.2056-0.43098l-0.45113 0.67954 0.00516 0.13178c0.15235 0.066562 0.48342 0.21418 0.99323 0.44287 0.5098 0.22868 1.0353 0.49132 1.5761 0.78858 0.35614 0.19576 0.7084 0.39825 1.0573 0.6072 0.34889 0.20895 0.58949 0.3497 0.7214 0.4222l0.49041-0.65784 0.00413-0.10129c-0.42673-0.28608-0.70586-0.55952-0.83715-0.82062-0.11089-0.26704-0.12745-0.62811-0.0491-1.0831 0.25741-1.5933 0.64108-3.5722 1.1508-5.9371 0.52295-2.3576 0.79885-3.5625 0.82785-3.6153l-0.12764-0.096118-1.5462-0.51521zm-0.47439 1.8004 0.1385 0.076481-0.90279 4.5015c-0.53024-0.22274-1.0261-0.46093-1.4878-0.71468l-1.3457-0.73949 3.5977-3.1238zm8.6972 2.9461-0.61702 0.61133 5.2e-4 0.11317 0.50488 0.34261c0.21834 0.16044 0.32372 0.32208 0.31626 0.48472 0.00146 0.15051-0.10945 0.37736-0.33228 0.68058l-4.2561 5.7537c-0.30306 0.41238-0.59008 0.65029-0.86042 0.71314-0.24929 0.059629-0.58998-0.022949-1.0227-0.24753l-0.67076 0.68368c0.11807 0.068091 0.40101 0.22967 0.84904 0.48421 0.45125 0.27558 0.91941 0.59173 1.4046 0.94826 0.61857 0.45458 1.3637 1.0295 2.2345 1.7255 0.88293 0.70489 1.459 1.1662 1.7291 1.3834l0.17156-0.042375c0.52736-0.5651 1.0383-1.0956 1.5332-1.5911 0.51596-0.49875 0.84379-0.81823 0.98392-0.95808l0.02584-0.14883-0.86765-0.49764c-0.56374 0.53836-1.0249 0.89952-1.3844 1.0837-0.33842 0.18092-0.68274 0.21753-1.033 0.10955-0.33815-0.099062-0.79861-0.36229-1.3808-0.79013-0.35174-0.25849-0.59449-0.47472-0.72864-0.64802-0.12202-0.16439-0.16453-0.33516-0.12713-0.51315 0.05845-0.1812 0.19937-0.42386 0.4222-0.72709 1.4529-1.977 2.837-3.7333 4.1527-5.2694 0.31271-0.34926 0.52585-0.57557 0.63924-0.67903 0.11339-0.10346 0.2632-0.14258 0.4501-0.1173 0.1958 0.013144 0.47104 0.1218 0.82527 0.32608l0.63407-0.71055c-0.1302-0.077004-0.40861-0.24454-0.83561-0.5023-0.41486-0.24884-0.75584-0.47105-1.0227-0.66714-0.50942-0.37436-0.9113-0.67919-1.2056-0.91416-0.29428-0.23496-0.4716-0.37505-0.53226-0.41961zm11.947 9.8449-8.7571 4.0277c-0.45352 0.19112-0.81837 0.28997-1.095 0.29611-0.26625-0.004713-0.5346-0.10503-0.80512-0.30127l-0.73793 0.57516c0.09789 0.093632 0.28816 0.26497 0.5705 0.51418 0.29323 0.25961 0.61361 0.55592 0.9617 0.88883 0.36984 0.35372 0.73511 0.72361 1.095 1.1095 0.3708 0.39628 0.60495 0.65196 0.70332 0.76688l0.69091-0.52658 0.01396-0.11214-0.70177-0.67076c-0.2719-0.26009-0.43114-0.48586-0.47801-0.67644-0.04682-0.19058 0.01287-0.37269 0.17932-0.54674 0.05202-0.054389 0.23545-0.17042 0.55087-0.34778l1.6118-0.7705c0.68245 0.52774 1.1816 0.94266 1.4971 1.2444 0.6853 0.65542 1.1313 1.0926 1.3384 1.3115l-0.80977 1.6309c-0.11112 0.26862-0.25006 0.49-0.41652 0.66404-0.14565 0.15229-0.33148 0.18277-0.55707 0.091984-0.2147-0.080383-0.56561-0.32226-1.0537-0.72657l-0.61082 0.54054-0.02945 0.12816c0.13006 0.10356 0.41226 0.33138 0.84594 0.68368 0.43369 0.3523 0.87332 0.74186 1.3193 1.1684 0.2937 0.2809 0.58229 0.56709 0.86558 0.85886 0.2833 0.29177 0.47931 0.48973 0.58808 0.59376l0.64337-0.50901 0.02997-0.096635c-0.33864-0.38635-0.53778-0.72261-0.59738-1.0087-0.03832-0.28658 0.03859-0.63988 0.23151-1.0594 0.65917-1.4732 1.5399-3.2862 2.6417-5.44 1.1127-2.1433 1.6896-3.2369 1.7312-3.2804l-0.0987-0.12557-1.3612-0.89607zm-0.92191 1.6175 0.1142 0.10955-2.0324 4.1171c-0.45497-0.35182-0.87244-0.70971-1.2532-1.0738l-1.1095-1.0609 4.2809-2.0919zm6.3355 6.7887c-0.26329-3.26e-4 -0.52813 0.017898-0.7953 0.055294-1.0687 0.14958-2.0891 0.60562-3.0603 1.3674-1.3146 1.0311-2.0608 2.238-2.2386 3.621-0.15672 1.3855 0.27575 2.7295 1.2976 4.0323h5.2e-4c0.44589 0.56848 0.91088 1.0641 1.3958 1.4872 0.47306 0.43239 0.87346 0.75957 1.2004 0.98134 0.33628 0.23361 0.55471 0.37802 0.65526 0.43305l0.21136-0.022738c0.22595-0.27287 0.60548-0.61809 1.1384-1.0361 0.72244-0.56666 1.2553-0.93699 1.5978-1.11 0.35182-0.16118 0.67302-0.20256 0.96377-0.12454l0.33486-0.37776c-0.06758-0.061771-0.21999-0.21954-0.45733-0.47336-0.21621-0.25126-0.43127-0.51309-0.64493-0.78548-0.32513-0.41452-0.63961-0.82775-0.94361-1.2397-0.29473-0.40012-0.46051-0.6239-0.49764-0.67128l-0.89297 0.47129-0.04341 0.09095 0.73846 0.94154c0.24149 0.30793 0.35216 0.54666 0.33176 0.71572-0.01114 0.18091-0.16487 0.38736-0.46095 0.6196l-1.5632 1.2263c-0.05155-0.016952-0.17819-0.080617-0.3793-0.19069-0.19182-0.098228-0.42997-0.25566-0.71469-0.47232-0.28471-0.21666-0.55689-0.49056-0.817-0.82217-0.74315-0.94747-0.9898-1.969-0.73949-3.0644 0.26216-1.1047 0.99129-2.1262 2.1875-3.0644 1.1133-0.87321 2.1788-1.259 3.1957-1.1576 1.0381 0.10401 1.9705 0.68279 2.7972 1.7368 0.56664 0.72244 0.88021 1.3181 0.94154 1.7865 0.07317 0.45911-0.09708 0.85103-0.51159 1.1762-0.17766 0.13934-0.34262 0.259-0.49403 0.35863-0.13954 0.090339-0.23269 0.15404-0.28009 0.1912l0.75396 0.81494c0.40941-0.28286 0.80432-0.53556 1.1849-0.75758 0.40175-0.21947 0.72738-0.38918 0.97772-0.50901 0.27147-0.11728 0.44154-0.19329 0.51005-0.22789l0.05116-0.15451c-0.05318-0.092192-0.17116-0.31535-0.35347-0.66973-0.17302-0.34253-0.40283-0.74571-0.68988-1.2092-0.27776-0.45168-0.56056-0.8612-0.84853-1.2283-0.79889-1.0185-1.7065-1.7604-2.7223-2.2262-0.75486-0.34048-1.5273-0.51113-2.3172-0.51211zm9.0728 8.447-0.77101 0.29042-0.05581 0.084233c0.18774 0.41328 0.28347 0.75827 0.2868 1.0346 0.00362 0.27629-0.05434 0.53581-0.17415 0.77928-0.10679 0.23592-0.32324 0.61353-0.64854 1.1327l-1.9627 3.0959c-0.24586 0.38616-0.46741 0.67955-0.66404 0.88057s-0.44466 0.38858-0.74414 0.56224l-0.60513 0.35088c-0.39064 0.22652-0.69898 0.37084-0.92449 0.43202-0.22552 0.061176-0.44332 0.030422-0.65319-0.091467-0.20988-0.12189-0.46028-0.35922-0.7519-0.7121l-0.86919 0.34726c0.10154 0.11511 0.30336 0.37256 0.60461 0.77205 0.28823 0.40704 0.53025 0.77973 0.72657 1.1183 0.25672 0.44271 0.50334 0.88257 0.73949 1.3198 0.23615 0.43724 0.39267 0.73795 0.47026 0.90175l0.91105-0.31936 0.03618-0.073381c-0.03021-0.052084-0.0974-0.15206-0.20103-0.30076-0.09608-0.13568-0.1933-0.28858-0.29145-0.45785-0.15857-0.27344-0.20262-0.49987-0.13281-0.67954s0.27382-0.36747 0.61237-0.56379c0.84636-0.49079 1.4434-0.81096 1.7916-0.96066 0.34818-0.1497 0.7008-0.2322 1.0573-0.24753l3.6127 0.018604c0.75622 0.013873 1.2801 0.032357 1.5715 0.054777 0.29894 0.035442 0.56991 0.11273 0.81338 0.23254 0.24347 0.11981 0.50659 0.33297 0.78859 0.63924l0.72037-0.28732 0.0832-0.12661c-0.07343-0.096617-0.19966-0.28436-0.37879-0.56327-0.17914-0.27891-0.36696-0.5875-0.56328-0.92604-0.16611-0.28646-0.36411-0.65891-0.59479-1.1167-0.21769-0.46537-0.34954-0.73681-0.39481-0.81494l-0.75964 0.31006-0.03566 0.072863c0.33091 0.66068 0.37245 1.0627 0.12506 1.2061-0.19532 0.11325-0.49171 0.17233-0.88935 0.17673l-3.9822 0.064595-0.05633-0.097668c0.26435-0.41428 0.73567-1.1313 1.4144-2.1513 0.68626-1.0069 1.1144-1.5596 1.2836-1.6578 0.1823-0.1057 0.35124-0.099378 0.50694 0.01912 0.17629 0.12397 0.40557 0.39973 0.68833 0.82734l0.67852-0.31523 0.0832-0.12661c-0.10363-0.1487-0.32606-0.47178-0.66715-0.96997-0.32806-0.50574-0.59784-0.94128-0.80925-1.3059-0.22652-0.39063-0.43877-0.77198-0.63717-1.1441-0.19084-0.35912-0.32013-0.59698-0.38809-0.71417zm6.3929 11.643-0.82992 0.24598-0.06408 0.077514 0.32349 0.67179c0.11014 0.24755 0.12169 0.44017 0.03463 0.57774-0.07332 0.13146-0.28199 0.2734-0.62581 0.42633l-6.5691 2.8975c-0.45384 0.20188-0.81677 0.25644-1.0888 0.1633-0.25831-0.099258-0.55184-0.3889-0.88056-0.86868l-0.89194 0.27285c0.08868 0.12529 0.25558 0.3893 0.50023 0.79117 0.23702 0.42173 0.4379 0.81827 0.60306 1.1896 0.20188 0.45384 0.39737 0.9105 0.5855 1.3705 0.18812 0.45996 0.31882 0.77238 0.39222 0.93741l0.88935-0.22272 0.06408-0.078032c-0.03822-0.048893-0.10093-0.15269-0.1881-0.31161-0.08104-0.14516-0.16447-0.31389-0.25011-0.50643-0.12846-0.2888-0.13844-0.51495-0.02998-0.67851 0.10846-0.16356 0.38261-0.34323 0.82269-0.53899 0.7289-0.32422 1.7699-0.76252 3.1223-1.3146 1.3585-0.53838 2.5996-1.0244 3.7243-1.4588 0.32855-0.11319 0.58182-0.11888 0.75913-0.016536 0.19107 0.096222 0.41491 0.35922 0.67179 0.78858l0.88264-0.29404c-0.07493-0.13141-0.23703-0.42151-0.48628-0.87075-0.24313-0.43548-0.43497-0.81127-0.57567-1.1276-0.26306-0.59136-0.47026-1.0757-0.62167-1.4531-0.14534-0.36369-0.2367-0.58721-0.27337-0.66973z" fill="#10362d"/><path d="m129.41 21.39q0.78532 0.16148 1.1153-4.58e-4 0.35919-0.17475 0.63041-0.8687l2.6346-6.6789q0.20547-0.52572 0.14504-0.74326-0.0522-0.23857-0.40969-0.37829l-0.59702-0.2091-0.0302-0.10877 0.43849-0.74978q0.10514 0.04109 0.60161 0.25937 0.5175 0.2265 1.3587 0.55524 0.56777 0.2219 1.291 0.48031 0.73142 0.23738 1.0258 0.35244 1.8926 0.73968 2.5266 1.9086 0.65501 1.1772 0.11258 2.5651-0.36163 0.92527-1.2582 1.5445-0.89653 0.61925-2.0273 0.78334-1.1015 0.15129-2.1319-0.25143l-1.451-0.56709-0.59634 1.4638q-0.28766 0.73601-0.3771 1.0889-0.0602 0.34009 0.0459 0.50276 0.1061 0.16268 0.46359 0.30239 0.27338 0.10684 0.55497 0.19266 0.28159 0.08581 0.36571 0.11869l9e-3 0.10055-0.49698 0.7754q-0.18926-0.07397-0.68573-0.29225-0.49647-0.21828-1.0222-0.42374-0.69395-0.27122-1.6777-0.60722-0.98376-0.336-1.0212-0.30216zm6.1156-2.3126q2.079 0.44891 2.909-1.675 0.46025-1.1776-0.0621-2.012-0.5141-0.85543-2.1123-1.4801-0.29441-0.11506-0.37393-0.09766-0.0713-0.0036-0.1663 0.17741-1.212 2.6049-1.8494 4.1738z"/><path d="m100.11 6.2317-0.18862 0.76068 0.085788 0.11627c0.61364 0.099766 1.0227 0.2293 1.2273 0.38809 0.22023 0.14435 0.32299 0.40432 0.30799 0.78031l-0.54467 7.4352c-0.02882 0.34532-0.13738 0.60444-0.32504 0.77773-0.18708 0.15825-0.46919 0.25253-0.84698 0.28267l-0.14986 0.92036c0.12092-0.010247 0.37766-0.029888 0.77049-0.059428 0.39224-0.014513 0.76152-0.01533 1.1074-0.00155 0.43616 0.017373 0.84928 0.041727 1.2397 0.072347 0.40548 0.03122 0.67552 0.057081 0.81028 0.077514l0.21653-0.89555-0.06511-0.07028-0.90331-0.013436c-0.21056-0.008389-0.35837-0.066825-0.44441-0.1757-0.08606-0.10887-0.12354-0.30645-0.11214-0.59221l0.34003-6.8327 0.11265 0.0041341c0.0012-0.03008 0.6915 0.98428 2.0707 3.0427s2.7416 4.1617 4.0871 6.3092l0.88935-0.21342 0.65732-9.6898c0.02882-0.34532 0.13694-0.59726 0.32401-0.75551 0.20271-0.17269 0.52315-0.28019 0.9617-0.32298l0.12713-0.92139c-0.12092 0.010247-0.39254 0.029535-0.81546 0.057878-0.40727 0.013902-0.77654 0.014216-1.1074 0.0010335-0.39104-0.015579-0.77441-0.038194-1.1498-0.068213-0.3754-0.030019-0.63057-0.055532-0.76533-0.075964l-0.19276 0.87385 0.04135 0.091984 0.67696 0.026872c0.4061 0.016178 0.59909 0.27211 0.57929 0.76843l-0.2372 6.521-0.11265-0.004651c-0.0012 0.03008-0.6487-0.91446-1.943-2.8339-1.2793-1.9189-2.4926-3.7975-3.6396-5.6358-0.07579 0.012045-0.24188 0.020468-0.49816 0.025322-0.25628 0.004854-0.54968 7.796e-4 -0.88056-0.012402-0.34592-0.013781-0.69183-0.035258-1.0372-0.064079-0.32968-0.043262-0.55414-0.074734-0.67386-0.094568zm-7.8486 0.50591-1.5617 0.46612-2.5513 9.295c-0.14551 0.47012-0.30473 0.81312-0.47801 1.0289-0.17491 0.20079-0.42451 0.34137-0.74879 0.4222l-0.034107 0.93483c0.13467-0.014701 0.38824-0.049613 0.76068-0.10542 0.3874-0.057435 0.82033-0.11257 1.2991-0.16485 0.50874-0.055545 1.0264-0.09677 1.5534-0.12402 0.54193-0.02886 0.88898-0.044075 1.0402-0.045475l0.041341-0.86765-0.076998-0.082166-0.96532 0.10542c-0.37407 0.040844-0.64924 0.017524-0.82527-0.069246-0.17603-0.08677-0.27668-0.24997-0.30282-0.48938-0.008166-0.074815 0.021201-0.28986 0.088367-0.64544l0.447-1.7296c0.84308-0.1829 1.4817-0.29782 1.9156-0.3452 0.94266-0.10292 1.5641-0.16315 1.865-0.18087l0.7276 1.6691c0.13415 0.2579 0.21416 0.5068 0.2403 0.74621 0.022872 0.20948-0.072679 0.37148-0.28732 0.48576-0.19968 0.11265-0.61152 0.22549-1.2351 0.339l0.02067 0.81545 0.079582 0.1049c0.16296-0.032933 0.51891-0.1024 1.0676-0.20774 0.54873-0.10533 1.1301-0.1914 1.7436-0.25838 0.404-0.044109 0.80876-0.080407 1.2144-0.10955 0.40563-0.02914 0.6834-0.051873 0.83302-0.068213l0.023771-0.82062-0.054777-0.084749c-0.51364 0.010656-0.89914-0.053266-1.1565-0.19172-0.24405-0.15505-0.46445-0.44127-0.66146-0.85886-0.70367-1.4524-1.5256-3.2935-2.4655-5.5227-0.92492-2.2308-1.3903-3.3756-1.3968-3.4354l-0.15968-0.0056844zm23.631 0.61598-0.29456 0.817 0.02739 0.097152 0.60307 0.092501c0.26609 0.050992 0.43031 0.15175 0.49351 0.30179 0.06615 0.13526 0.0641 0.38749-0.00672 0.75706l-1.3694 7.0254c-0.09632 0.50262-0.26012 0.83859-0.49196 1.0087-0.23184 0.17013-0.62715 0.23276-1.1854 0.18707l-0.28939 0.91002c0.15066 0.013547 0.49033 0.040078 1.0191 0.080098 0.5259 0.054804 1.092 0.14017 1.6981 0.25632 0.78349 0.15014 1.8006 0.36061 3.0515 0.63097s2.0744 0.45133 2.4706 0.5426l0.15451-0.085783c0.18378-0.63911 0.38421-1.2439 0.601-1.8154 0.23441-0.58343 0.38906-0.95228 0.46457-1.1064l-0.06718-0.12816-0.9927-0.098185c-0.23096 0.6454-0.46228 1.0915-0.6935 1.3384-0.21361 0.23493-0.53595 0.35701-0.96687 0.36639-0.43091 0.009376-1.1268-0.077861-2.0877-0.262-0.4287-0.082154-0.73461-0.16377-0.91829-0.24495-0.16886-0.078343-0.27019-0.18997-0.30385-0.33435-0.0188-0.14154 0.00411-0.38191 0.06924-0.72192 0.17282-0.90176 0.38941-1.9101 0.64906-3.0251 0.53157 0.025238 1.0041 0.077259 1.418 0.15658 0.53218 0.10198 1.0336 0.20566 1.5038 0.31109 0.48501 0.10827 0.8084 0.17813 0.971 0.20929l0.48731-1.1023-0.06718-0.12764c-0.16544-0.01638-0.51255-0.044729-1.0413-0.084749-0.5259-0.054802-0.92194-0.10765-1.188-0.15865l-1.8144-0.37052 0.73639-3.1233c0.05726-0.21891 0.11562-0.36091 0.17415-0.42633 0.06134-0.080198 0.16715-0.1138 0.31781-0.10025 0.1535-0.0012366 0.42975 0.036683 0.82889 0.11317 0.85741 0.16431 1.4506 0.30824 1.7792 0.43253 0.34629 0.11234 0.55555 0.25991 0.62787 0.44235 0.08992 0.17049 0.09794 0.44764 0.02429 0.83199-0.02831 0.14783-0.06384 0.29425-0.10697 0.43925-0.04027 0.13021-0.06618 0.22509-0.07752 0.28422l1.0816 0.11524c0.17183-0.65673 0.3643-1.2633 0.57826-1.82 0.21396-0.5567 0.35165-0.91379 0.41238-1.0707l-0.04548-0.12351c-1.2081-0.093587-3.0467-0.37698-5.5154-0.85008-0.6061-0.11615-1.1665-0.23126-1.681-0.3452-0.51456-0.11393-0.86026-0.1877-1.0377-0.22169zm-24.391 1.5792 1.8443 4.2049c-0.56206 0.12193-1.1051 0.21154-1.6288 0.26872l-1.526 0.1664 1.1534-4.623 0.1571-0.017053z" fill="#10362d"/><path d="m77.914 20.272q0.67499-0.28129 0.84651-0.6254 0.18809-0.3714 0.0057-1.1171l-1.6783-6.9576q-0.13409-0.54829-0.30859-0.69156-0.17986-0.1652-0.57463-0.06866l-0.58679 0.16675-0.08725-0.07164-0.07223-0.86558q0.10966-0.02682 0.66331-0.13898 0.55365-0.11216 1.4748-0.33743 0.48249-0.118 1.1682-0.35543 0.70765-0.24279 0.9216-0.31836l0.13755 0.94258q-0.57606 0.21061-0.77976 0.42313-0.20906 0.19059-0.19929 0.42063 0.0098 0.23004 0.11025 0.92601 0.49941 2.9925 1.3737 6.5673 0.13409 0.54829 0.28618 0.79001 0.16866 0.21443 0.47522 0.23243 0.32849 0.01264 0.96451-0.14291 1.0527-0.25745 1.4923-0.5509 0.46152-0.29881 0.5794-0.86224 0.13445-0.59072 0.05829-1.7575l0.93817-0.34566 0.09798 0.1155q0.02586 0.29584 0.1025 1.3695 0.0932 1.0464 0.23516 2.1971l-0.07748 0.15841q-0.50979 0.10143-2.1707 0.43791-1.639 0.33111-2.7575 0.60466-0.87726 0.21454-1.6288 0.46806-0.72422 0.27009-0.91624 0.34029z"/><path d="m66.246 13.007c-1.0412 0.61988-2.707 1.4482-4.9971 2.4846-0.56223 0.25444-1.0864 0.48329-1.5725 0.68678-0.48616 0.20349-0.81161 0.34256-0.97617 0.41703l0.23048 0.83716 0.078032 0.063562 0.54622-0.27182c0.24683-0.1117 0.4391-0.12442 0.57723-0.03824 0.13192 0.072468 0.27584 0.28039 0.43098 0.62322l2.9301 6.5298c0.211 0.46624 0.2707 0.83528 0.17932 1.1079-0.091388 0.27266-0.37837 0.55166-0.86093 0.83612l0.28836 0.91002c0.13092-0.075771 0.42388-0.24936 0.87902-0.52142 0.46134-0.25834 0.97307-0.51502 1.5353-0.76946 0.72679-0.32891 1.6792-0.74327 2.8572-1.2433 1.178-0.50007 1.9552-0.82697 2.3316-0.98082l0.076998-0.15865c-0.2182-0.62819-0.40328-1.2384-0.55552-1.8304-0.14473-0.61188-0.23074-1.0026-0.25786-1.172l-0.12867-0.065629-0.86816 0.49196c0.18327 0.66053 0.2518 1.1584 0.20516 1.4934-0.039138 0.3151-0.23205 0.60075-0.57878 0.8568-0.34673 0.25604-0.96591 0.58571-1.8573 0.98909-0.39768 0.17997-0.69505 0.28964-0.89194 0.32918-0.18317 0.033334-0.3301 4.09e-4 -0.4408-0.098185-0.096991-0.1048-0.21693-0.31454-0.35967-0.62994-0.37856-0.83649-0.78286-1.7855-1.2134-2.8463 0.44892-0.28577 0.86557-0.51508 1.2495-0.68885 0.49367-0.22341 0.96264-0.42801 1.4077-0.61288 0.45874-0.19108 0.76383-0.32034 0.91467-0.38861l-0.2372-1.1813-0.12919-0.065629c-0.14464 0.081977-0.44456 0.25866-0.89969 0.53072-0.46134 0.25834-0.81512 0.44382-1.062 0.55552l-1.696 0.74259-1.1984-2.9766c-0.079378-0.2119-0.11398-0.36188-0.10387-0.44907 0.003904-0.1009 0.071131-0.18881 0.20206-0.26458 0.12472-0.089484 0.37234-0.21847 0.74259-0.38602 0.79535-0.35994 1.363-0.5834 1.7033-0.67128 0.34773-0.1078 0.60366-0.10844 0.76791-0.001033 0.17176 0.087483 0.33836 0.30957 0.49971 0.66611 0.062057 0.13713 0.11753 0.27731 0.16588 0.42065 0.042143 0.12962 0.075432 0.22213 0.10025 0.27699l0.95033-0.52917c-0.23812-0.6357-0.43067-1.2428-0.57671-1.8211-0.14604-0.57825-0.23925-0.94882-0.28009-1.1121l-0.108-0.074931zm-11.517 6.058c-0.067032 0.006151-0.2252 0.05117-0.47439 0.13488-0.25712 0.070915-0.58692 0.19575-0.9896 0.37466-0.40268 0.17891-0.81502 0.39913-1.2371 0.66094-0.70352 0.43635-1.2675 0.95438-1.6924 1.5544-0.42487 0.60004-0.6689 1.2207-0.73174 1.8619-0.050042 0.63324 0.09157 1.2187 0.42478 1.756 0.37288 0.60119 0.89599 0.95881 1.5689 1.0728 0.6857 0.10608 1.5606 0.10347 2.6252-0.007752 0.78366-0.07868 1.3575-0.12487 1.7213-0.13798 0.37661-0.021042 0.73877 0.020201 1.0862 0.12351 0.35232 0.082581 0.61955 0.27114 0.80202 0.56534 0.27767 0.4477 0.30808 0.92481 0.09095 1.4314-0.20434 0.49869-0.61385 0.93849-1.2278 1.3193-0.55002 0.34114-0.99874 0.53078-1.3467 0.56947-0.34795 0.038691-0.68268-0.072659-1.0041-0.33383-0.31654-0.2819-0.68883-0.7681-1.1172-1.4588l-0.81597 0.61236c0.25387 0.40932 0.48833 0.83037 0.70383 1.2635 0.22036 0.4124 0.38288 0.7459 0.48731 0.99994 0.10928 0.23332 0.17724 0.38596 0.20412 0.45785l0.20309 0.11317c0.067032-0.006154 0.23706-0.032182 0.51005-0.077515 0.27784-0.066057 0.62635-0.17534 1.0449-0.32866 0.43134-0.16126 0.87057-0.3812 1.3183-0.65888 0.78027-0.48395 1.3959-1.0336 1.8464-1.6495 0.45531-0.63664 0.71438-1.2755 0.77721-1.9167 0.06769-0.6619-0.077071-1.2806-0.43408-1.8562-0.26974-0.4349-0.64236-0.73527-1.1172-0.90124-0.47489-0.16597-0.97122-0.23863-1.4898-0.21807-0.50582 0.012621-1.1638 0.066169-1.973 0.16071-0.93052 0.098919-1.6581 0.12503-2.1828 0.078548-0.51197-0.054411-0.88699-0.27359-1.125-0.65732-0.23801-0.38374-0.25974-0.80418-0.065113-1.2614 0.19948-0.47797 0.56812-0.88377 1.1054-1.217 0.66515-0.41254 1.1887-0.59582 1.5715-0.54984 0.38762 0.025264 0.73652 0.28766 1.0459 0.78652 0.11107 0.17908 0.19959 0.33648 0.26613 0.47232 0.058611 0.12306 0.099707 0.20347 0.12351 0.24185l0.16278 0.005685 0.70073-0.54105c-0.3107-0.58662-0.572-1.1508-0.78393-1.6924-0.21987-0.5544-0.36051-0.91003-0.4222-1.0666l-0.1602-0.0863zm-8.7333 5.1609c-0.084135 0.08745-0.25022 0.24094-0.49816 0.46095s-0.52416 0.453-0.82837 0.69918c-0.25741 0.20831-0.59455 0.46163-1.0113 0.76016-0.42622 0.28683-0.67445 0.45892-0.74466 0.51573l0.42375 0.7028 0.077514 0.024288c0.60173-0.42886 0.99263-0.53237 1.1725-0.31006 0.14203 0.17551 0.24594 0.45942 0.31161 0.85163l0.678 3.9243-0.08785 0.071313c-0.4501-0.19728-1.2316-0.55282-2.344-1.0661-1.1007-0.52274-1.7125-0.86024-1.8355-1.0123-0.13256-0.16381-0.15249-0.33172-0.059427-0.50384 0.095295-0.1933 0.3327-0.46237 0.71158-0.8077l-0.416-0.62218-0.13798-0.062528c-0.13094 0.12532-0.41615 0.39489-0.85576 0.80874-0.44908 0.40215-0.83769 0.73585-1.1653 1.001-0.35102 0.28406-0.69489 0.55273-1.032 0.80615-0.32538 0.24395-0.54065 0.40881-0.64596 0.49403l0.40566 0.71675 0.091984 0.041857c0.37942-0.24896 0.70529-0.39667 0.97772-0.44287 0.27243-0.046195 0.53833-0.028628 0.79737 0.052194 0.24957 0.06912 0.65586 0.22429 1.219 0.4656l3.3616 1.4619c0.41946 0.18335 0.74361 0.3566 0.97255 0.51986 0.22894 0.16327 0.45246 0.37943 0.67024 0.64854l0.44028 0.54415c0.28406 0.35102 0.47373 0.63359 0.56896 0.84698 0.095225 0.21338 0.09891 0.43271 0.010852 0.65888s-0.28389 0.51062-0.58756 0.85318l0.47697 0.80512c0.098069-0.11809 0.32097-0.35697 0.66921-0.71624 0.35771-0.34757 0.68901-0.6442 0.99322-0.89038 0.39782-0.32193 0.79452-0.63354 1.1901-0.93431 0.39559-0.30076 0.66816-0.50217 0.81804-0.6041l-0.4563-0.85059-0.077514-0.024288c-0.046802 0.037874-0.13571 0.11962-0.26665 0.24495-0.11924 0.11586-0.2551 0.23502-0.40721 0.35812-0.24571 0.19884-0.46232 0.27793-0.65061 0.23668-0.18829-0.041256-0.40597-0.2141-0.65216-0.51832-0.61546-0.76054-1.0236-1.3012-1.2252-1.6221-0.20162-0.32092-0.33759-0.65627-0.40773-1.0061l-0.53847-3.5724c-0.10294-0.74931-0.16582-1.2698-0.18862-1.5611-0.011092-0.30083 0.024082-0.58071 0.1049-0.83974 0.080822-0.25904 0.25043-0.55161 0.50953-0.87747l-0.39481-0.66766-0.13798-0.062529zm-9.4651 10.328c-0.639-0.004782-1.2834 0.12143-1.9332 0.37879-0.94521 0.37434-1.8282 1.002-2.6489 1.8831-0.14363 0.1542-0.39906 0.45082-0.76688 0.88987-0.37883 0.42879-0.75308 0.84166-1.1224 1.2382-0.277 0.29738-0.55948 0.58983-0.84749 0.87695-0.27775 0.2761-0.46792 0.46915-0.57051 0.57929l0.53537 0.68368 0.11317 0.043925c0.030777-0.033042 0.081903-0.098516 0.15296-0.19689 0.07106-0.098371 0.15262-0.1975 0.24495-0.29662 0.1744-0.18724 0.34213-0.26758 0.50281-0.24133 0.14967 0.01599 0.36234 0.15228 0.63769 0.40876l5.2379 4.9103c0.35245 0.32829 0.53935 0.63561 0.56017 0.92242 0.020827 0.28681-0.1205 0.65918-0.42375 1.1172l0.61702 0.72916c0.070304-0.11964 0.24227-0.37097 0.51625-0.75344 0.28499-0.37221 0.56112-0.70117 0.82786-0.98754 0.277-0.29738 0.6319-0.64561 1.0651-1.0444 0.45442-0.39952 0.75928-0.66075 0.91467-0.78342 0.81047-0.87011 1.3507-1.8474 1.6211-2.9326 0.25933-1.0955 0.23213-2.1702-0.082166-3.2241-0.30403-1.0649-0.8855-1.9975-1.7446-2.7978-0.77098-0.71814-1.6173-1.1567-2.5389-1.3157-0.28822-0.056335-0.57771-0.085676-0.86816-0.08785zm-0.73484 1.7813c1.0704-0.016569 2.11 0.44486 3.1182 1.3839 1.0904 1.0157 1.6922 2.0697 1.8056 3.1626 0.12359 1.0819-0.24566 2.0855-1.1074 3.0107-0.40011 0.42955-0.73038 0.72915-0.99064 0.89814-0.27127 0.15872-0.52492 0.21002-0.76119 0.15451-0.24728-0.065775-0.51963-0.23718-0.817-0.51418-0.53969-0.5027-2.2956-2.2612-5.2674-5.2762-0.11089-0.12386-0.15726-0.22886-0.13901-0.31471 0.017498-0.10712 0.10819-0.24907 0.27233-0.4253 1.1695-1.2556 2.354-1.9417 3.5533-2.0588 0.1114-0.01194 0.22258-0.018956 0.33331-0.02067zm-8.4269 9.4051c-0.87669 4.8e-4 -1.7252 0.24354-2.5456 0.72864-0.87511 0.51743-1.6494 1.2752-2.3223 2.2738-0.11777 0.17474-0.32387 0.50778-0.61857 0.99891-0.30718 0.48272-0.61235 0.9485-0.91519 1.3978-0.22713 0.33701-0.46009 0.66979-0.6997 0.99839-0.2312 0.31611-0.38923 0.53664-0.47336 0.66146l0.63614 0.59221 0.11886 0.025322c0.02524-0.037446 0.065076-0.11033 0.11989-0.21859 0.054815-0.10827 0.12014-0.21839 0.19585-0.33073 0.14301-0.21217 0.29556-0.31809 0.45837-0.31729 0.15033-0.007593 0.38197 0.094069 0.69402 0.30437l5.9407 4.0313c0.39942 0.26919 0.63225 0.54369 0.69763 0.82372s-0.015964 0.67014-0.24391 1.17l0.72295 0.62322c0.050746-0.12916 0.18189-0.40366 0.39274-0.82424 0.22333-0.41217 0.44429-0.78083 0.66301-1.1054 0.22713-0.33701 0.52332-0.73631 0.88884-1.1979 0.38641-0.46562 0.64703-0.77078 0.78135-0.91622 0.66456-0.98606 1.0451-2.0366 1.1426-3.1507 0.084969-1.1226-0.10988-2.1796-0.58498-3.1714-0.46668-1.0043-1.187-1.8347-2.1606-2.4908-0.87372-0.58885-1.7779-0.88973-2.713-0.90279-0.058696-0.002122-0.11725-0.003132-0.1757-0.0031zm-0.48266 1.8738c0.85088 0.010846 1.7294 0.32157 2.6355 0.93224 1.2357 0.83281 1.9952 1.7799 2.2779 2.8417 0.29112 1.0493 0.083407 2.0986-0.62322 3.1471-0.32808 0.48679-0.60754 0.83371-0.83819 1.0413-0.24313 0.19916-0.48556 0.28973-0.7276 0.27182-0.25452-0.026329-0.55028-0.15269-0.88728-0.37982-0.6116-0.4122-2.6211-1.8753-6.0275-4.3889-0.12887-0.10502-0.19064-0.20123-0.18604-0.28887 5.47e-4 -0.10854 0.067977-0.2628 0.20257-0.4625 0.95899-1.4229 2.0217-2.2859 3.1879-2.589 0.3245-0.087601 0.65303-0.1293 0.98599-0.12506z" fill="#10362d"/><path d="m26.141 65.162-0.70478-0.41051q0.34642-0.88532 0.35997-1.2289 0.02325-0.36401-0.26215-0.49987-0.32617-0.15527-0.76105-0.18724l-1.8026-0.25797q-0.21447 0.39801-0.82584 1.6823-0.28142 0.59119-0.71225 1.8114l1.2368 1.2889q0.40095 0.3659 0.50288 0.41442 0.32617 0.15527 0.57562-1e-3 0.24945-0.15631 0.49206-0.66596l0.41728-0.87659 0.11066-0.02234 0.71644 0.49108q-0.11743 0.19416-0.50755 0.90864-0.38042 0.6941-0.71037 1.3872-0.31054 0.65235-0.54246 1.1921-0.22222 0.51935-0.30956 0.70282l-0.7776-0.52019q0.15234-0.4776 0.03386-0.85907-0.13886-0.39117-0.62428-0.94732l-6.5696-7.0532 0.42399-1.5736 0.08832-0.133q0.08154 0.03882 3.6577 0.61591 3.5858 0.55671 5.9942 0.80294 0.68823 0.07756 1.0784-0.11177 0.37951-0.21943 0.77062-0.88343l0.10095-2e-3 0.68537 0.45128q-0.09704 0.20386-0.37944 0.74457-0.2824 0.54071-0.54442 1.0911-0.39788 0.83582-0.69578 1.6192-0.2979 0.78339-0.38426 1.0173zm-4.8517-1.2593q0.33965-0.71351 0.62687-1.527l-4.5468-0.63909-0.06793 0.1427 3.328 3.4096z"/></g><path d="m101.86 7.1291c-52.258 0-94.734 42.479-94.734 94.736 0 52.258 42.477 94.734 94.734 94.734 52.258 0 94.736-42.477 94.736-94.734 0-52.258-42.479-94.736-94.736-94.736z" color="#000000" fill="none"/><g stroke-width="2.6458" aria-label="nature center and preserve"><path d="m185.16 107.94-0.1204 0.05323c-0.01335 1.2117-0.17467 3.0647-0.48318 5.5594-0.07574 0.61246-0.15294 1.1792-0.23254 1.7002-0.07956 0.52098-0.13076 0.87133-0.15296 1.0506l0.83509 0.23977 0.09508-0.03359 0.0522-0.60771c0.03325-0.26889 0.12267-0.44015 0.2682-0.51315 0.13058-0.07486 0.38257-0.08909 0.75602-0.04289l7.1003 0.90072c0.5079 0.06281 0.85461 0.20421 1.0397 0.42427 0.18512 0.22005 0.27319 0.61037 0.26459 1.1705l0.92707 0.22841c0.0038-0.15123 0.00826-0.49194 0.01292-1.0222 0.01985-0.52838 0.06741-1.0991 0.14315-1.7115 0.0979-0.79172 0.24045-1.8206 0.42736-3.0866s0.31295-2.0997 0.37775-2.5011l-0.0956-0.14831c-0.64988-0.14103-1.267-0.30058-1.8516-0.47904-0.59769-0.19525-0.97604-0.32554-1.1348-0.39068l-0.12299 0.07597-0.03255 0.99684c0.65928 0.1877 1.1202 0.3887 1.3818 0.60306 0.24854 0.19757 0.3915 0.51116 0.42943 0.94051 0.0379 0.42935-0.00342 1.1292-0.1235 2.1001-0.05358 0.4332-0.11463 0.74411-0.18345 0.93276-0.06698 0.17371-0.17133 0.28243-0.31316 0.32556-0.13999 0.02814-0.38197 0.02077-0.72554-0.0217-0.91123-0.11269-1.9316-0.26127-3.0613-0.44648-0.01007-0.53208 0.01079-1.0075 0.06253-1.4258 0.0665-0.53776 0.13678-1.0447 0.21084-1.5208 0.07589-0.4911 0.12384-0.81908 0.14417-0.9834l-1.1317-0.41289-0.12299 0.07596c-0.0056 0.16617-0.01084 0.51416-0.0155 1.0444-0.0198 0.52838-0.04632 0.92691-0.07958 1.1958l-0.2496 1.835-3.1652-0.52814c-0.22223-0.04263-0.36804-0.09114-0.43719-0.14521-0.08388-0.0559-0.12425-0.15935-0.12092-0.31057-0.0114-0.15308 0.00801-0.43125 0.05788-0.83458 0.10715-0.8664 0.21195-1.4678 0.31419-1.804 0.08916-0.35298 0.22221-0.57154 0.39946-0.65578 0.16416-0.101 0.4405-0.12758 0.82889-0.07958 0.14938 0.01847 0.29792 0.04463 0.44545 0.07803 0.13261 0.03154 0.22862 0.051 0.28836 0.0584l0.0434-1.0868c-0.66667-0.12794-1.285-0.2802-1.8547-0.45682-0.56966-0.1766-0.93441-0.28983-1.095-0.34003zm-0.96583 8.7731c-0.0331 0.13136-0.09003 0.38836-0.17105 0.77153s-0.17848 0.8012-0.29249 1.2537c-0.12503 0.49625-0.27038 1.0109-0.43563 1.5436-0.16157 0.51809-0.26946 0.85547-0.32453 1.0124l0.80409 0.31884 0.0987-0.02171 0.22066-0.87539c0.10665-0.42328 0.233-0.70998 0.3793-0.85938 0.13171-0.15311 0.31424-0.19995 0.54777-0.14108 0.23353 0.05884 1.169 0.65892 2.806 1.8009 1.6407 1.1274 3.0099 2.101 4.1072 2.9208l-0.04961 0.1974c-0.79954 0.03139-2.3041 0.08701-4.5129 0.16691-2.2051 0.06554-3.4241 0.06869-3.6576 0.00982-0.2335-0.05884-0.37-0.19437-0.4098-0.40617-0.03608-0.22641 0.00446-0.66606 0.12248-1.3193l-0.77153-0.26407-0.1478 0.03256c-0.0332 0.19342-0.09771 0.60372-0.19378 1.2314-0.11067 0.62405-0.22144 1.1553-0.33177 1.5932-0.10296 0.40868-0.21516 0.8227-0.33641 1.2423-0.12123 0.4196-0.2019 0.70968-0.24236 0.87023l0.79891 0.34107 0.07649-0.02739c0.13952-0.43051 0.32108-0.74937 0.54415-0.95705 0.22675-0.22226 0.51356-0.34408 0.86041-0.36535 1.8365-0.14265 3.8169-0.27256 5.9418-0.38912 2.114-0.13487 3.4926-0.21442 4.1352-0.23875l0.03514-1.7141-8.1752-5.995c-0.3026-0.21594-0.48851-0.40203-0.55758-0.55914-0.07966-0.17537-0.08245-0.44029-0.00879-0.79427l-0.85938-0.3793zm-1.3265 11.987c-0.43755 0.01313-0.85652 0.15076-1.2578 0.4129-0.72743 0.46059-1.3116 1.2595-1.7524 2.3962-0.06528 0.16841-0.17357 0.48924-0.32504 0.96324-0.16551 0.46857-0.32747 0.90663-0.48524 1.3136-0.15234 0.39295-0.31164 0.78295-0.47801 1.1705-0.16638 0.38751-0.27684 0.65186-0.33124 0.7922l0.75137 0.43615 0.10852-0.03049 0.20722-0.59738c0.09249-0.23855 0.21829-0.37556 0.37724-0.41083 0.14492-0.04068 0.38614 0.0043 0.72296 0.13488l6.7071 2.6241c0.46313 0.17954 0.74592 0.38642 0.84904 0.62011 0.10314 0.2337 0.08928 0.62349-0.04185 1.17l0.80615 0.48214c0.02949-0.11771 0.09974-0.34047 0.21084-0.66869 0.1111-0.32823 0.25094-0.71009 0.41961-1.1452 0.1741-0.4491 0.34552-0.89097 0.51418-1.326 0.18813-0.44365 0.32168-0.74705 0.40101-0.91002l-0.73432-0.47853-0.07958 0.01757c-0.16638 0.38752-0.31059 0.65434-0.43202 0.80099-0.11598 0.13259-0.26871 0.19465-0.45889 0.18552-0.2042-0.0146-0.51026-0.10113-0.91725-0.2589l-2.236-0.91519 0.53072-1.3684 3.7801-0.56844c0.58053-0.08167 1.0737-0.22941 1.4795-0.44339 0.39179-0.21941 0.64719-0.48344 0.76688-0.7922l0.45992-1.6862-0.61133-0.35863-0.13798 0.0434c-0.16866 0.43506-0.41807 0.7666-0.74827 0.99374-0.33021 0.22714-0.8132 0.41095-1.449 0.55191l-3.3884 0.74465c-0.04618-0.92193-0.2585-1.7066-0.63717-2.3539-0.37867-0.64724-0.89077-1.0959-1.5363-1.3462-0.36226-0.14044-0.71388-0.20554-1.0542-0.19534zm-0.16382 1.8505c0.26988-0.00584 0.55384 0.04889 0.85163 0.16433 0.5333 0.20675 0.91918 0.50151 1.1581 0.8847s0.37396 0.70198 0.40463 0.95601c0.02206 0.23457 0.03757 0.50683 0.0465 0.81701l-0.82992 1.6397c-0.81398-0.31556-2.0557-0.86108-3.7243-1.6371-0.15436-0.05987-0.24447-0.11885-0.27027-0.17725-0.03953-0.06386-0.03733-0.15231 0.0062-0.26458 0.60783-1.5679 1.3936-2.3619 2.3575-2.3828zm-5.194 6.7019-0.13125 0.00672c-0.4476 1.126-1.2631 2.7978-2.4469 5.0152-0.29064 0.54441-0.56699 1.0456-0.82838 1.5033-0.26138 0.45764-0.43428 0.76618-0.51934 0.92552l0.69298 0.52348 0.10077 0.00311 0.26716-0.54829c0.1276-0.23901 0.27256-0.36654 0.4346-0.38241 0.14876-0.02296 0.38894 0.05429 0.72089 0.23151l6.303 3.3905c0.45146 0.24102 0.7243 0.49709 0.81804 0.76895 0.09375 0.27185 0.03606 0.66788-0.17312 1.1875l0.7829 0.54519c0.05761-0.13987 0.18431-0.45621 0.37931-0.9493 0.20827-0.486 0.45764-1.0012 0.74827-1.5456 0.3757-0.70374 0.87779-1.6125 1.5069-2.727 0.6291-1.1145 1.0464-1.8474 1.2511-2.1988l-0.03617-0.17311c-0.55589-0.36501-1.0745-0.73559-1.556-1.1121-0.4877-0.39686-0.79401-0.65424-0.9188-0.77204l-0.14211 0.02635-0.38809 0.91932c0.54789 0.41194 0.90557 0.76483 1.0728 1.0588 0.16101 0.27366 0.18186 0.61766 0.06304 1.032-0.11881 0.41432-0.40843 1.0531-0.86919 1.9162-0.20558 0.38507-0.37445 0.65326-0.50643 0.80461-0.1249 0.13805-0.26143 0.20135-0.40928 0.19068-0.14077-0.02396-0.36382-0.11704-0.66921-0.28008-0.80997-0.43242-1.7086-0.93813-2.6965-1.5167 0.18172-0.50018 0.37151-0.93614 0.56999-1.3079 0.2552-0.47801 0.50299-0.92577 0.74311-1.3436 0.2472-0.4311 0.40985-0.72005 0.48783-0.8661l-0.90796-0.79168-0.14211 0.02635c-0.0647 0.15315-0.19465 0.47636-0.38964 0.96945-0.20827 0.486-0.37625 0.84827-0.50384 1.0873l-0.89194 1.6226-2.7642-1.6294c-0.19207-0.11961-0.31092-0.21669-0.35605-0.29197-0.05827-0.08236-0.05864-0.19344-0.00104-0.33331 0.04434-0.14696 0.16208-0.4001 0.35347-0.75861 0.41114-0.77013 0.72488-1.2934 0.94103-1.5704 0.20997-0.29738 0.41307-0.4537 0.60875-0.4687 0.18949-0.03534 0.45679 0.03893 0.80202 0.22324 0.13278 0.07089 0.26188 0.14838 0.38757 0.23254 0.11239 0.0771 0.19543 0.1298 0.24856 0.15813l0.43047-0.99838c-0.57625-0.35883-1.0986-0.72304-1.5668-1.0924-0.46823-0.36941-0.76832-0.60602-0.90021-0.71056zm-4.7305 9.2206c-0.05902 0.03237-0.18623 0.13703-0.38137 0.31316-0.20751 0.16757-0.46016 0.4133-0.75809 0.73794-0.29794 0.32465-0.58857 0.69125-0.87127 1.0997-0.47116 0.6807-0.78189 1.381-0.93224 2.1006-0.15033 0.71969-0.12623 1.3863 0.07183 1.9994 0.20663 0.60067 0.57005 1.0809 1.0899 1.4407 0.58168 0.40263 1.2035 0.52191 1.866 0.35812 0.67112-0.17618 1.4726-0.52769 2.4045-1.0542 0.68728-0.38465 1.195-0.65525 1.5234-0.81235 0.33698-0.1695 0.68557-0.2766 1.0454-0.3204 0.35603-0.06476 0.67653 0.00141 0.96118 0.19844 0.43341 0.29983 0.65156 0.72574 0.65423 1.2769 0.01147 0.53882-0.18877 1.1051-0.59996 1.6991-0.36836 0.53218-0.70404 0.88514-1.0077 1.0594-0.30366 0.17421-0.65531 0.20591-1.0542 0.09457-0.4027-0.13229-0.93779-0.42985-1.6061-0.89245l-0.50436 0.88677c0.39604 0.27413 0.77946 0.56672 1.1498 0.87798 0.36653 0.29031 0.64835 0.53111 0.84543 0.72243 0.19324 0.1704 0.31667 0.28328 0.37 0.33848l0.23099 0.02274c0.05902-0.03237 0.20492-0.12346 0.43719-0.27388 0.22845-0.17138 0.50413-0.41079 0.82682-0.71831 0.33125-0.31988 0.64636-0.69647 0.94619-1.1296 0.52256-0.75495 0.8676-1.5045 1.0351-2.249 0.16366-0.76539 0.14639-1.4545-0.05167-2.0676-0.20188-0.634-0.58098-1.1441-1.1379-1.5296-0.42079-0.29123-0.88221-0.41799-1.3839-0.38085-0.50168 0.03717-0.98627 0.16864-1.4537 0.39429-0.45883 0.21328-1.0402 0.52439-1.7446 0.93379-0.81389 0.46178-1.4706 0.77594-1.9704 0.94258-0.4912 0.15426-0.92269 0.103-1.294-0.154-0.37114-0.257-0.55875-0.63376-0.56275-1.1307-0.00766-0.51786 0.16833-1.0367 0.52813-1.5565 0.44546-0.64357 0.85331-1.0207 1.2227-1.1312 0.36555-0.1314 0.78961-0.03023 1.2723 0.30386 0.17326 0.11993 0.31734 0.22907 0.43253 0.32711 0.10282 0.08951 0.17267 0.14694 0.20981 0.1726l0.15141-0.05994 0.42685-0.77515c-0.51886-0.41406-0.98339-0.82755-1.3937-1.2397-0.4227-0.42072-0.69335-0.69026-0.81235-0.80925l-0.18139-0.01602zm-5.5149 7.0905c-0.69214 0.99462-1.8669 2.4366-3.5243 4.3264-0.40692 0.46397-0.78956 0.88924-1.1482 1.2754-0.35868 0.38614-0.59766 0.6471-0.71675 0.7829l0.55552 0.66766 0.09767 0.02532 0.38499-0.47336c0.17865-0.20366 0.34865-0.29477 0.51005-0.27337 0.15008 0.01151 0.36666 0.14152 0.64957 0.38964l5.3661 4.7362c0.38475 0.33744 0.59175 0.64928 0.62115 0.93534 0.02941 0.28606-0.11678 0.65834-0.43873 1.1167l0.63872 0.71107c0.08793-0.12309 0.28288-0.40243 0.58498-0.83819 0.31342-0.42584 0.67364-0.87084 1.0806-1.3348 0.52602-0.59975 1.2225-1.3705 2.0888-2.3125 0.86625-0.94202 1.439-1.5611 1.7182-1.8567l0.00362-0.17622c-0.45821-0.48195-0.87877-0.96091-1.2619-1.4371-0.38457-0.49745-0.62412-0.81805-0.71882-0.96118l-0.14418-0.00672-0.58756 0.80615c0.43976 0.52584 0.70767 0.95101 0.80357 1.2754 0.09452 0.30312 0.03689 0.64317-0.17311 1.0196s-0.6375 0.93205-1.2826 1.6676c-0.28782 0.32818-0.51348 0.55085-0.67645 0.66818-0.15304 0.106-0.30028 0.13708-0.44183 0.09302-0.13162-0.05538-0.32729-0.19703-0.58756-0.4253-0.69029-0.60541-1.4507-1.3021-2.281-2.0903 0.29079-0.44569 0.57528-0.82727 0.85318-1.1441 0.35729-0.40739 0.70048-0.78727 1.0294-1.1395 0.33884-0.36351 0.56262-0.60726 0.6718-0.73174l-0.70384-0.97772-0.14469-0.00724c-0.09785 0.13441-0.29786 0.41948-0.59996 0.85525-0.31342 0.42584-0.5593 0.74044-0.73794 0.94413l-1.2376 1.3772-2.3213-2.2159c-0.15982-0.16019-0.25277-0.28178-0.27957-0.36535-0.03813-0.0935-0.01352-0.20196 0.07442-0.32505 0.07661-0.13301 0.24879-0.3523 0.51676-0.65784 0.57564-0.65634 1.0003-1.0946 1.2738-1.3152 0.27214-0.24179 0.50523-0.34775 0.69919-0.31781 0.19256 0.00872 0.43596 0.14193 0.73018 0.39997 0.11317 0.09925 0.2213 0.20414 0.32453 0.31471 0.09192 0.10067 0.16092 0.17066 0.20619 0.21032l0.64647-0.87436c-0.47945-0.48057-0.90506-0.95379-1.2769-1.4201-0.37185-0.46628-0.61006-0.7653-0.71469-0.8971l-0.1297-0.02326zm-6.8745 9.1348c-0.10191-5.1e-4 -0.20569 0.00476-0.31161 0.01602-0.85737 0.07886-1.741 0.52388-2.651 1.3353-0.13481 0.12021-0.37744 0.35698-0.72812 0.71003-0.36071 0.34181-0.70413 0.65827-1.0299 0.94878-0.31456 0.2805-0.63403 0.55498-0.9586 0.82424s-0.54292 0.45431-0.65526 0.55449l0.46974 0.73018 0.11059 0.02274 0.45682-0.4377c0.19098-0.1703 0.3654-0.2353 0.52296-0.1943 0.14755 0.02977 0.34145 0.17945 0.58188 0.44907l4.7764 5.3909c0.33059 0.37073 0.48899 0.68343 0.47439 0.93845-0.01459 0.25502-0.20493 0.59585-0.57051 1.0227l0.49817 0.79634c0.07986-0.09138 0.24411-0.25807 0.49247-0.49971 0.24837-0.24164 0.54678-0.51783 0.89504-0.82838 0.35948-0.32056 0.71317-0.63616 1.0614-0.94671 0.36951-0.30933 0.6267-0.51837 0.77153-0.62735l-0.43615-0.76068-0.07906-0.02015c-0.32458 0.26926-0.57391 0.44149-0.74879 0.51676-0.16365 0.06528-0.32837 0.0503-0.49351-0.04444-0.17517-0.10597-0.40816-0.32172-0.69867-0.64751l-1.5741-1.833 1.0955-0.97668 3.6246 1.2149c0.55405 0.19189 1.06 0.28454 1.5188 0.27854 0.44872-0.01696 0.79672-0.13567 1.0439-0.35606l1.1772-1.2919-0.38137-0.59738-0.14262-0.02428c-0.34826 0.31056-0.72087 0.49177-1.1183 0.54363-0.39742 0.05188-0.91126-0.00395-1.5415-0.16795l-3.3559-0.87953c0.37864-0.84184 0.54676-1.6372 0.50436-2.3859-0.04243-0.74868-0.29417-1.3813-0.75499-1.8981-0.51716-0.57996-1.1325-0.87188-1.8459-0.8754zm-0.76636 1.6221c0.54662-0.00603 1.0327 0.22967 1.4578 0.70642 0.38068 0.42689 0.59019 0.86523 0.62839 1.3152 0.03823 0.44994 0.01291 0.79494-0.07545 1.0351-0.08716 0.21889-0.19742 0.46807-0.33073 0.74828l-1.4852 1.0826c-0.58103-0.65158-1.4376-1.7026-2.5699-3.1533-0.10988-0.12359-0.16301-0.21739-0.15968-0.28112-0.00637-0.07499 0.03518-0.1524 0.12506-0.23254 0.90364-0.8058 1.7069-1.2128 2.4097-1.2206z" fill="#10362d" stroke-width="2.6458"/><path d="m152.23 181.24q0.57075-0.56308 0.61952-0.92737 0.0544-0.39572-0.37175-1.0069l-4.0878-5.9025q-0.32282-0.46302-0.53725-0.5337-0.22734-0.0892-0.54219 0.13031l-0.50566 0.38008-0.10722-0.0353-0.37957-0.78126q0.0926-0.0646 0.55001-0.35595 0.47593-0.30431 1.2168-0.82083 0.50005-0.34865 1.1168-0.80621 0.60387-0.47608 0.86316-0.65686 1.6668-1.1622 2.991-1.0395 1.3426 0.10978 2.1949 1.3321 0.56817 0.81491 0.58463 1.9044 0.0165 1.0895-0.47562 2.1207-0.48647 0.99975-1.394 1.6325l-1.2779 0.89099 0.88539 1.3094q0.45195 0.64822 0.6956 0.91872 0.24926 0.23907 0.44347 0.24128 0.19421 2e-3 0.50906-0.2173 0.24076-0.16787 0.46862-0.35426 0.22785-0.18639 0.30194-0.23804l0.0887 0.0482 0.36835 0.84413q-0.16668 0.11622-0.62409 0.40761t-0.92042 0.61421q-0.61118 0.42613-1.4373 1.0572t-0.81882 0.68099zm1.4768-6.3693q1.5287-1.4787 0.22451-3.3493-0.72312-1.0372-1.7071-1.0667-0.99687-0.0481-2.4044 0.93328-0.25929 0.18078-0.28902 0.25656-0.0427 0.0573 0.055 0.23686 1.4918 2.4554 2.4417 3.8574z"/><g stroke-width="2.6458"><path d="m57.104 172.39-0.54209 0.67851-0.005167 0.10077 0.54105 0.28215c0.23547 0.13401 0.35852 0.28201 0.37 0.44442 0.018931 0.14932-0.064508 0.38764-0.25063 0.71468l-3.5595 6.2089c-0.25313 0.44478-0.51688 0.7105-0.79117 0.79686-0.27429 0.08636-0.66855 0.01798-1.1824-0.20516l-0.56689 0.76843c0.13826 0.06137 0.4508 0.19587 0.93844 0.40411 0.4802 0.22132 0.98862 0.48488 1.525 0.79013 0.69333 0.39457 1.5886 0.92129 2.6856 1.5803s1.8184 1.0954 2.1642 1.3095l0.17363-0.03101c0.3799-0.54582 0.76457-1.0543 1.1539-1.5255 0.40989-0.47679 0.6752-0.77605 0.79633-0.89762l-0.022221-0.14262-0.90847-0.4129c-0.42659 0.53656-0.78884 0.88414-1.0873 1.0434-0.27791 0.15357-0.62257 0.16562-1.0335 0.03566-0.41096-0.12997-1.0416-0.43696-1.8919-0.92088-0.37937-0.2159-0.64292-0.39159-0.79065-0.52761-0.13464-0.12859-0.19451-0.26694-0.17983-0.41445 0.02776-0.14007 0.12746-0.36058 0.29869-0.66146 0.45414-0.79798 0.98348-1.6827 1.5885-2.6546 0.49508 0.19517 0.92562 0.39668 1.2919 0.60513 0.47094 0.26802 0.91226 0.52797 1.3234 0.77929 0.42425 0.25875 0.70824 0.42918 0.85214 0.51107l0.81597-0.88676-0.022221-0.14263c-0.15134-0.06881-0.47096-0.20724-0.9586-0.41548-0.4802-0.22132-0.83837-0.39877-1.0738-0.53278l-1.5978-0.93535 1.7038-2.7197c0.12476-0.18878 0.22532-0.30471 0.30179-0.34778 0.083915-0.05607 0.19505-0.05313 0.33331 0.00827 0.14571 0.04829 0.39507 0.17261 0.74828 0.37362 0.75874 0.43181 1.2735 0.75984 1.5446 0.9834 0.29162 0.21792 0.44249 0.42462 0.45217 0.62064 0.030206 0.19038-0.051379 0.45569-0.24495 0.79581-0.074448 0.13082-0.15535 0.258-0.24288 0.38138-0.080085 0.11028-0.13507 0.19158-0.16485 0.24391l0.9865 0.45734c0.37426-0.56635 0.75238-1.0783 1.1343-1.5364 0.38192-0.45807 0.62678-0.75156 0.73484-0.88056l-0.003101-0.13178c-1.1135-0.47785-2.7623-1.3384-4.947-2.5818-0.53635-0.30524-1.0301-0.59451-1.4805-0.86817-0.45042-0.27365-0.75408-0.45532-0.91106-0.54466zm82.617 4.5976c-1.0166-0.0104-2.0714 0.23725-3.1642 0.7431-0.19123 0.08853-0.54004 0.26674-1.0464 0.53434-0.51272 0.25395-1.0146 0.4948-1.5064 0.72244-0.3688 0.17072-0.74108 0.33437-1.1162 0.49144-0.36146 0.15071-0.61013 0.25764-0.74672 0.32091l0.23719 0.83561 0.08837 0.08371c0.04098-0.01894 0.11306-0.06079 0.21601-0.12505 0.10295-0.06422 0.21606-0.12446 0.33899-0.18139 0.23221-0.10746 0.41769-0.1191 0.55656-0.03411 0.13254 0.07134 0.27755 0.27813 0.43563 0.61961l2.9957 6.5247c0.20234 0.4371 0.25907 0.79265 0.17002 1.0661-0.08904 0.27342-0.3601 0.56477-0.8139 0.87436l0.29559 0.90796c0.11028-0.08423 0.36459-0.25164 0.76274-0.5023 0.40447-0.237 0.78433-0.43763 1.1395-0.60203 0.36879-0.17073 0.82911-0.3592 1.3808-0.56482 0.57167-0.19832 0.95235-0.32496 1.1426-0.37982 1.0791-0.49954 1.9489-1.2005 2.6091-2.1032 0.65389-0.9164 1.0345-1.9219 1.1415-3.0164 0.12069-1.1008-0.06593-2.184-0.55914-3.2494-0.44262-0.95615-1.0604-1.6818-1.8536-2.1771-0.78589-0.51527-1.6871-0.77818-2.7037-0.78858zm-74.142 0.16226-0.43512 0.65164 0.040824 0.13849c0.5435 0.30185 0.88456 0.56211 1.0232 0.78083 0.15825 0.21044 0.16686 0.49005 0.025321 0.83871l-3.0324 6.8104c-0.14416 0.31511-0.33418 0.52225-0.56947 0.62167-0.22963 0.08549-0.52732 0.0785-0.89297-0.02119l-0.45268 0.81494c0.11723 0.03134 0.36558 0.09979 0.74517 0.20515 0.37393 0.1193 0.72154 0.24393 1.0423 0.37414 0.40445 0.16418 0.7851 0.3272 1.142 0.48834 0.3709 0.16678 0.61601 0.28234 0.73587 0.34727l0.50746-0.76895-0.037724-0.08785-0.84491-0.31884c-0.19526-0.07926-0.3151-0.18467-0.35915-0.31626-0.044053-0.13159-0.012481-0.32981 0.095085-0.5948l2.636-6.3133 0.1049 0.04238c0.011323-0.02789 0.31688 1.1601 0.91674 3.5641 0.59986 2.404 1.1684 4.8446 1.7064 7.321l0.9095 0.10077 3.9026-8.8935c0.14416-0.31512 0.33105-0.51553 0.56069-0.601 0.19326-0.07273 0.44084-0.08398 0.74104-0.03514-0.10758 0.31961-0.2237 0.64111-0.3483 0.96428-0.22678 0.62516-0.37946 1.0282-0.45837 1.2098l1.0433 0.20464c0.29727-0.71556 0.5534-1.185 0.76791-1.4087 0.2329-0.2344 0.51895-0.34582 0.85834-0.33435 0.33939 0.0115 0.97131 0.12315 1.896 0.33538l-1.9022 7.2275c-0.15706 0.5968-0.30444 1.0094-0.44235 1.2376-0.11952 0.21754-0.31639 0.34457-0.59066 0.38137-0.25972 0.0406-0.68628 0.00621-1.28-0.10335l-0.38292 0.83302c0.19306 0.03524 0.54844 0.10535 1.0656 0.21032 0.5133 0.11952 1.032 0.24811 1.556 0.38603 0.52402 0.1379 1.0604 0.28686 1.6097 0.447 0.54547 0.17471 0.92018 0.28901 1.124 0.34261l0.39429-0.87695-0.048575-0.08268c-0.043669-0.01153-0.15429-0.03268-0.3328-0.06408-0.16395-0.02758-0.37723-0.07625-0.63924-0.14521-0.3639-0.09577-0.60312-0.25189-0.71727-0.4687-0.11416-0.21682-0.11523-0.53647-0.004134-0.9586 0.3601-1.3683 0.78159-2.8525 1.265-4.453 0.48728-1.615 0.85955-2.7621 1.1162-3.4416 0.8366 0.2513 1.3905 0.4516 1.6624 0.601 0.28652 0.15322 0.46436 0.39455 0.5333 0.72398 0.087354 0.31872 0.089989 0.87177 0.007234 1.6593l1.0211 0.19896c0.016858-0.18234 0.079016-0.59435 0.18552-1.2356 0.1065-0.64124 0.23667-1.2838 0.39067-1.928l-0.13436-0.19896-1.6402-0.24494-5.5676-1.465-1.5043-0.58291-0.21497 0.10697c-0.003417 0.01186-0.006894 0.0238-0.010335 0.03566-0.12559-0.0355-0.17348-0.04798-0.35967-0.10129-0.38788-0.12496-0.73549-0.24958-1.0423-0.37414-0.36261-0.14719-0.71533-0.29875-1.0583-0.45423-0.343-0.15545-0.57416-0.2658-0.69401-0.33073l-0.47801 0.75654 0.008268 0.10077 0.62735 0.25477c0.37656 0.15286 0.47156 0.4596 0.28474 0.91984l-2.4334 6.0539-0.10439-0.04237c-0.011322 0.02789-0.30052-1.0803-0.86765-3.3249-0.55318-2.2389-1.0581-4.4173-1.5141-6.5355-0.075395-0.01436-0.23422-0.06292-0.47697-0.14522-0.24275-0.08229-0.51741-0.1855-0.82424-0.31005-0.32077-0.13021-0.63884-0.26771-0.95395-0.41187-0.2955-0.15241-0.49612-0.25802-0.60203-0.31729zm73.264 1.3152c0.40015 0.00363 0.78018 0.05924 1.141 0.16691 1.1484 0.33089 2.0423 1.1862 2.681 2.5657 0.626 1.3523 0.78484 2.5559 0.47697 3.6106-0.2942 1.0484-1.0153 1.8382-2.1626 2.3694-0.53271 0.24664-0.95145 0.39921-1.2563 0.45734-0.31112 0.04451-0.56546-0.00353-0.76326-0.14418-0.20413-0.1543-0.39151-0.41616-0.56224-0.78496-0.30983-0.66931-1.2711-2.9609-2.8841-6.875-0.056-0.15657-0.05915-0.27105-0.00982-0.34364 0.05667-0.09258 0.19435-0.18925 0.4129-0.29043 1.0705-0.49558 2.0461-0.73972 2.9264-0.73173zm-7.4052 1.5823c-0.11116 0.04867-0.36224 0.15466-0.75344 0.31781-0.38106 0.14443-0.73054 0.26343-1.048 0.3576-0.37519 0.11129-0.74498 0.21334-1.11 0.30592-0.36504 0.09262-0.61464 0.15112-0.74879 0.17519l0.0987 0.88883 0.06873 0.0739 0.64957-0.19275c0.38962-0.11558 0.65508 0.06485 0.79634 0.54105l1.8774 6.2492-0.10852 0.03204c0.00856 0.02886-0.90885-0.65637-2.7528-2.0562-1.8295-1.4041-3.5834-2.7915-5.2617-4.162-0.06786 0.03584-0.2225 0.09729-0.46354 0.18449-0.24103 0.0872-0.5202 0.17764-0.83767 0.27182-0.3319 0.09845-0.66583 0.18986-1.002 0.27388-0.32602 0.06533-0.54896 0.10784-0.66869 0.12764l0.06666 0.78083 0.11886 0.08269c0.61304-0.10338 1.0419-0.11281 1.2867-0.02843 0.25498 0.06566 0.43611 0.279 0.54312 0.63976l1.8805 7.2135c0.084 0.33617 0.06547 0.61624-0.05633 0.84078-0.12607 0.2101-0.36315 0.39074-0.71107 0.54105l0.15503 0.91932c0.11116-0.04867 0.34769-0.1503 0.71003-0.30489 0.36664-0.14015 0.71611-0.25966 1.048-0.35812 0.41848-0.12414 0.81736-0.23438 1.1968-0.33124 0.3939-0.10118 0.65805-0.16404 0.7922-0.1881l-0.08372-0.91674-0.08423-0.046-0.85938 0.27854c-0.20203 0.05993-0.36146 0.05207-0.47801-0.02325-0.11654-0.07534-0.21529-0.24983-0.29662-0.524l-1.8805-6.5779 0.108-0.03204c-0.00856-0.02886 0.97184 0.70878 2.9409 2.2128 1.9691 1.504 3.9366 3.0553 5.9025 4.6545l0.77359-0.48835-2.5016-9.385c-0.08402-0.33618-0.06304-0.60898 0.06304-0.81908 0.13623-0.22881 0.40531-0.43412 0.80667-0.61598l-0.17673-0.91312zm-45.372 3.8675-0.25321 0.83096 0.032039 0.0956 0.60668 0.06253c0.2683 0.03769 0.43791 0.12975 0.5085 0.27647 0.07268 0.13181 0.082849 0.3839 0.030489 0.75654l-1.0185 7.0848c-0.071207 0.50678-0.21822 0.85053-0.44132 1.032s-0.61473 0.26333-1.1746 0.24546l-0.2434 0.92346c0.15115 0.00607 0.49158 0.01579 1.0216 0.02946 0.52797 0.02858 1.0978 0.08569 1.7089 0.17156 0.78999 0.111 1.8161 0.27069 3.0789 0.47853 1.2628 0.20782 2.0946 0.34712 2.4949 0.41857l0.14986-0.0925c0.15177-0.64746 0.32142-1.2622 0.50953-1.8438 0.20511-0.59437 0.34152-0.97042 0.40928-1.1281l-0.073898-0.12402-0.99632-0.04909c-0.19858 0.65608-0.40714 1.1134-0.6258 1.3715-0.20166 0.24524-0.51731 0.38313-0.94723 0.41393-0.42992 0.03079-1.1292-0.022-2.0981-0.15813-0.43226-0.06074-0.74217-0.12701-0.92966-0.19896-0.17258-0.06984-0.2791-0.1758-0.31988-0.31832-0.025867-0.14044-0.015094-0.38221 0.033073-0.72502 0.12775-0.90924 0.29376-1.927 0.49764-3.0536 0.53216-0.00126 1.0068 0.02712 1.4242 0.08579 0.5366 0.0754 1.0423 0.15424 1.5172 0.23616 0.48978 0.08399 0.81686 0.13765 0.98082 0.16071l0.4315-1.125-0.073897-0.12454c-0.16605-0.00814-0.5138-0.01889-1.0439-0.03256-0.52797-0.0286-0.92646-0.06155-1.1948-0.09922l-1.8299-0.28008 0.58033-3.1559c0.046322-0.22149 0.096742-0.36636 0.15193-0.4346 0.057282-0.08312 0.16149-0.12176 0.31264-0.11576 0.15324-0.00887 0.43109 0.01478 0.83354 0.07132 0.86452 0.12147 1.4639 0.23637 1.7983 0.34416 0.35145 0.09498 0.56827 0.23169 0.64957 0.41031 0.0983 0.16581 0.12008 0.44238 0.065629 0.82992-0.020946 0.14906-0.049419 0.29695-0.085266 0.44391-0.033753 0.13207-0.054665 0.22772-0.063045 0.28732l1.0857 0.06149c0.13896-0.66446 0.30129-1.2798 0.48731-1.8464s0.30527-0.93008 0.35812-1.0898l-0.051159-0.12093c-1.2113-0.0334-3.0614-0.2254-5.5506-0.57516-0.61112-0.08586-1.1764-0.17275-1.696-0.26096s-0.86913-0.14488-1.048-0.17002zm29.651 0.11317-0.15968 0.00207-1.5394 0.53537-2.1327 9.3999c-0.12434 0.47616-0.26804 0.82574-0.4315 1.049-0.16576 0.20842-0.40882 0.36002-0.72916 0.45527l0.00776 0.93586c0.13387-0.02071 0.38593-0.06763 0.75551-0.14004 0.38444-0.07471 0.81436-0.14857 1.2904-0.22221 0.50574-0.07823 1.0214-0.14298 1.5467-0.19378 0.5401-0.05307 0.88558-0.08334 1.0366-0.09147l0.0031-0.86868-0.08061-0.07907-0.95964 0.14831c-0.37187 0.05754-0.6476 0.04729-0.82733-0.03152-0.17976-0.07881-0.28825-0.23742-0.32505-0.47542-0.01153-0.07438 0.00823-0.29083 0.05943-0.64906l0.36948-1.7477c0.83406-0.22042 1.4667-0.36372 1.8981-0.43046 0.93712-0.14499 1.5559-0.23345 1.8557-0.26458l0.80099 1.6356c0.14556 0.25164 0.23708 0.49632 0.27388 0.73432 0.03222 0.20824-0.05681 0.37439-0.26613 0.49816-0.19444 0.12147-0.60017 0.25249-1.218 0.39377l0.05736 0.81391 0.0832 0.10077c0.16132-0.0402 0.51383-0.125 1.0573-0.25477s1.1203-0.24207 1.7301-0.33641c0.40162-0.06213 0.80427-0.11655 1.2082-0.16382s0.68014-0.08242 0.82889-0.10542l-0.0124-0.82062-0.05839-0.08216c-0.51265 0.03362-0.90096-0.01324-1.1643-0.14005-0.25073-0.14398-0.4837-0.42001-0.69918-0.82837-0.76792-1.4195-1.6713-3.222-2.7099-5.4069-1.0238-2.1872-1.5401-3.3104-1.5493-3.3698zm-19.671 1.1932-0.14986 0.85577 0.066146 0.09095 0.63252-0.01189c0.25585 0.00424 0.42768 0.07493 0.51573 0.21187 0.088307 0.1219 0.12951 0.36331 0.12351 0.72451l-0.14211 7.2011c-0.008242 0.49664-0.10373 0.83371-0.28732 1.0113-0.1836 0.1776-0.5545 0.29935-1.1126 0.36535l-0.17363 0.92294c0.12065-0.013 0.35434-0.02426 0.70073-0.03359 0.3464-0.00907 0.75302-0.0098 1.2196-0.00207 0.48159 8e-3 0.95559 0.01604 1.4221 0.02377 0.48134 0.023 0.81184 0.04343 0.99219 0.0615l0.19482-0.85473-0.04392-0.06873c-0.42115-0.02203-0.72164-0.06444-0.90124-0.12764-0.16455-0.06295-0.27508-0.1853-0.33228-0.3669-0.056953-0.19665-0.082177-0.51337-0.074931-0.94982l0.085266-2.4143 1.4676 0.02429 1.8412 3.3497c0.27745 0.51644 0.58644 0.92832 0.92759 1.2351 0.3414 0.29186 0.67814 0.44012 1.0092 0.44545l1.741-0.15193 0.12454-0.69763-0.08837-0.11472c-0.46654-0.00774-0.86379-0.12688-1.1911-0.35812s-0.66686-0.62113-1.0191-1.1689l-1.8712-2.9213c0.84903-0.36226 1.5117-0.83311 1.988-1.4123 0.47631-0.5792 0.72027-1.2146 0.73174-1.9069 0.01473-0.88794-0.32003-1.5863-1.0041-2.0944-0.6838-0.52321-1.6351-0.79474-2.8541-0.81494-0.1806-3e-3 -0.51934 0.00656-1.0165 0.02843-0.49689 0.00682-0.96347 0.00623-1.3999-0.00104-0.42139-7e-3 -0.84286-0.02134-1.264-0.04341-0.42114-0.02186-0.70682-0.03402-0.85731-0.03669zm3.3703 1.0046c2.1521 0.03572 3.2163 0.78345 3.1921 2.2433-0.00949 0.57189-0.15305 1.036-0.42995 1.3927-0.27689 0.3567-0.5288 0.59338-0.75654 0.71003-0.21245 0.10185-0.46291 0.21094-0.75086 0.3266l-1.8257-0.21136c0.014486-0.87289 0.097178-2.2261 0.24805-4.0602 0.002746-0.16554 0.02748-0.27031 0.07338-0.31471 0.046148-0.05946 0.1292-0.0883 0.2496-0.0863zm15.48 0.03101 2.0309 4.1181c-0.55604 0.14695-1.0943 0.26105-1.6149 0.34159l-1.5172 0.23461 0.94517-4.67 0.15606-0.02429z" fill="#10362d"/><path d="m45.534 178.26q-2.0447-1.5259-2.3612-3.5932-0.31654-2.0674 1.1958-4.094 1.0668-1.4295 2.5554-2.0652 1.5202-0.64034 3.169-0.39594 1.6669 0.2579 3.1687 1.3787 0.54284 0.4051 1.0679 0.90958 0.54311 0.51799 0.87368 0.90554 0.34866 0.40104 0.44373 0.50016l-0.0086 0.16258q-0.08561 0.077-0.41455 0.36676-0.31544 0.27169-0.81101 0.74701-0.49557 0.47533-0.99087 1.0635l-0.94524-0.62088q0.04051-0.0543 0.20714-0.23982 0.16663-0.18554 0.35568-0.43887 0.94523-1.2666-1.0814-2.779-1.4114-1.0533-2.9278-0.71998-1.5029 0.31518-2.7182 1.9437-1.3503 1.8095-1.2966 3.5117 0.07185 1.7157 1.5194 2.796 0.95902 0.71567 1.898 0.62762 0.97062-0.0926 2.0477-1.0074l0.95875 0.60278q-0.21632 0.17663-0.92822 0.82858-0.6938 0.66546-1.2477 1.2944l-0.2166 0.0637q-0.13557-0.0448-0.65978-0.21065-0.49261-0.17041-1.2747-0.55687-0.78212-0.38646-1.5783-0.98061z"/><path d="m9.8743 121.3-0.92863 0.11162c0.035491 0.13073 0.10961 0.37562 0.22273 0.73484 0.11706 0.37373 0.23864 0.79297 0.36484 1.2578 0.13408 0.49389 0.25535 0.99885 0.36432 1.5152 0.11291 0.53083 0.18232 0.87089 0.20722 1.0201l0.863-0.09405 0.069763-0.08889-0.25425-0.93689c-0.098586-0.36315-0.11877-0.6384-0.060461-0.82579 0.058304-0.18742 0.20373-0.31262 0.43615-0.37569 0.07263-0.01973 0.28942-0.02392 0.65112-0.01292l1.7782 0.17208c0.31193 0.80433 0.52488 1.4174 0.63924 1.8386 0.24844 0.91514 0.40488 1.5199 0.46922 1.8144l-1.5358 0.97824c-0.23387 0.17269-0.46676 0.29091-0.69918 0.35398-0.20337 0.05521-0.37821-0.01454-0.52452-0.20877-0.14236-0.17971-0.31841-0.56859-0.52762-1.1669l-0.80202 0.14728-0.09095 0.09509c0.057904 0.15584 0.18155 0.49652 0.37104 1.0222 0.18949 0.52563 0.3649 1.086 0.52658 1.6816 0.10647 0.3922 0.20571 0.78672 0.29766 1.1829 0.091949 0.39615 0.15745 0.66658 0.19689 0.81184l0.8139-0.10387 0.075447-0.06718c-0.090491-0.50572-0.087389-0.89623 0.009302-1.172 0.11516-0.26522 0.36387-0.52793 0.74569-0.78755 1.3252-0.92123 3.0154-2.0194 5.071-3.2949 2.0596-1.261 3.1184-1.8993 3.1766-1.9151l-0.019637-0.15865-0.70332-1.4702-9.5787-1.0723c-0.48705-0.07054-0.85078-0.17455-1.0909-0.31212-0.22558-0.14152-0.40348-0.36612-0.53382-0.67386zm4.8328 2.5482 4.746 0.4191 0.041341 0.15296-3.8664 2.4763c-0.20796-0.53622-0.38081-1.0584-0.51883-1.5668l-0.40204-1.4816zm7.8874 4.5465c-0.60658 0.22626-1.2386 0.43033-1.8955 0.61185-0.63732 0.18993-1.052 0.30674-1.2449 0.3514l0.4563 0.96067c0.75191-0.1871 1.2816-0.26141 1.589-0.22221 0.32701 0.04759 0.587 0.21138 0.7798 0.49092 0.1928 0.27956 0.47945 0.85406 0.85938 1.7234l-6.9396 2.774c-0.57304 0.2291-0.99227 0.35579-1.2578 0.38086-0.24597 0.03348-0.46554-0.04904-0.65836-0.24753-0.18723-0.18451-0.41311-0.54755-0.67851-1.0899l-0.89762 0.18811c0.086607 0.1761 0.24159 0.50332 0.46509 0.98133 0.20952 0.48359 0.41486 0.97686 0.61598 1.48 0.20113 0.50316 0.40112 1.0234 0.59945 1.5601 0.18435 0.54228 0.31556 0.91123 0.39377 1.1069l0.93896-0.20568 0.037723-0.08785c-0.01676-0.04193-0.065225-0.14379-0.14624-0.30592-0.075432-0.14815-0.1635-0.34787-0.26407-0.59945-0.13967-0.34941-0.15639-0.63497-0.050127-0.85576 0.10626-0.22079 0.36208-0.41211 0.7674-0.57412 1.3138-0.52517 2.7573-1.0698 4.331-1.634 1.5877-0.56983 2.731-0.9541 3.4298-1.1524 0.29609 0.82181 0.46509 1.3865 0.50695 1.694 0.047442 0.32144-0.040404 0.60787-0.26407 0.85937-0.2041 0.2599-0.64703 0.59142-1.3291 0.99374l0.44803 0.93896c0.15654-0.095 0.52413-0.29038 1.1028-0.58652 0.57865-0.29615 1.1729-0.57426 1.7823-0.83406l0.079582-0.22634-0.77928-1.4635-2.1373-5.3459-0.42736-1.5555-0.21342-0.10904zm3.5248 8.924-0.83612 0.30851-0.037207 0.07183 0.31523 0.52244c0.13126 0.23702 0.1595 0.42795 0.08475 0.57258-0.061588 0.13734-0.25734 0.29725-0.58653 0.47956l-5.0364 2.789c-1.0929 0.60525-1.7611 1.3715-2.005 2.298-0.23664 0.93973-0.030429 1.9954 0.61857 3.1672 0.71462 1.2904 1.5614 2.1206 2.5404 2.4903 0.99948 0.37561 2.0454 0.26056 3.1383-0.34468l5.0565-2.7998c0.28968-0.16043 0.5235-0.20408 0.70177-0.13074 0.17826 0.07333 0.42773 0.32232 0.74879 0.74672l0.82321-0.37827c-0.071504-0.09805-0.2256-0.31386-0.46199-0.64751-0.21593-0.32776-0.40796-0.64334-0.57568-0.94619-0.20418-0.36869-0.40172-0.74074-0.59273-1.1167-0.18372-0.36281-0.31207-0.6104-0.38499-0.74207l-0.83561 0.30799-0.048576 0.05271 0.39171 0.66094c0.12397 0.22385 0.15156 0.39776 0.082683 0.52193-0.055712 0.11689-0.25386 0.28683-0.5948 0.51005-0.41407 0.24651-1.138 0.66442-2.1709 1.2537-1.0125 0.59512-1.9266 1.1189-2.743 1.571-0.79005 0.43753-1.5162 0.55568-2.1782 0.3545-0.64154-0.1953-1.1922-0.70782-1.6516-1.5374-0.45211-0.81639-0.54808-1.5802-0.28836-2.2918 0.27289-0.71892 0.87688-1.3374 1.8118-1.8552l4.5884-2.3864c0.30427-0.13411 0.5522-0.16787 0.74362-0.1018 0.19143 0.06604 0.41954 0.27518 0.68368 0.62786l0.83354-0.35863c-0.078796-0.11121-0.24357-0.34644-0.49454-0.70642-0.23781-0.36728-0.43695-0.69579-0.59738-0.98547-0.21876-0.39502-0.4275-0.78752-0.6258-1.1767-0.1983-0.38915-0.33733-0.65614-0.41755-0.80098zm5.9955 10.531-0.7705 0.40153-0.032556 0.108 0.39429 0.49454c0.1522 0.2057 0.20091 0.3853 0.14573 0.53847-0.043084 0.14422-0.20983 0.32361-0.50023 0.53847l-5.8033 4.2659c-0.3993 0.29547-0.72509 0.42434-0.97772 0.38654-0.25263-0.03777-0.57512-0.25801-0.96687-0.66094l-0.83819 0.42323c0.083722 0.08784 0.23468 0.26654 0.45269 0.53588 0.21801 0.26935 0.46557 0.59177 0.74311 0.96687 0.28649 0.38719 0.56893 0.76798 0.84646 1.1431 0.27439 0.39615 0.45916 0.67164 0.55449 0.82579l0.79685-0.36535 0.027905-0.07648c-0.23857-0.34775-0.38745-0.61222-0.44648-0.79324-0.050082-0.1689-0.020505-0.33096 0.088883-0.48679 0.12149-0.16478 0.35759-0.37703 0.70848-0.63665l1.9689-1.401 0.87282 1.1798-1.54 3.499c-0.2413 0.5343-0.37991 1.0299-0.416 1.4872-0.023987 0.4484 0.062457 0.80558 0.25942 1.0718l1.1793 1.2904 0.62994-0.32556 0.037207-0.14004c-0.27753-0.3751-0.42431-0.76275-0.43977-1.1632s0.087259-0.90711 0.30799-1.5198l1.1818-3.2618c0.80385 0.45379 1.5801 0.69392 2.3296 0.71985 0.74943 0.02594 1.4025-0.16695 1.9591-0.57877 0.7139-0.52821 1.0647-1.2186 1.0521-2.0707-4.26e-4 -0.86098-0.36314-1.7815-1.0883-2.7616-0.10743-0.1452-0.32115-0.40822-0.64079-0.78961-0.30754-0.39035-0.59097-0.76119-0.85059-1.1121-0.25068-0.3388-0.49523-0.68216-0.73381-1.0299s-0.40243-0.5818-0.49196-0.7028zm1.0061 3.1393c0.008988-5e-4 0.017426-1.5e-4 0.025321 0.00104 0.075257 4.8e-4 0.14852 0.04944 0.22014 0.14624 1.2802 1.7303 1.3339 3.0295 0.1602 3.898-0.4598 0.33994-0.91581 0.50858-1.3674 0.50592-0.45155-0.00294-0.79262-0.05963-1.0237-0.1695-0.21004-0.10674-0.4483-0.23912-0.7152-0.39739l-0.94258-1.5777c0.7018-0.51925 1.8261-1.2763 3.374-2.2717 0.11646-0.08619 0.20632-0.13135 0.26923-0.13488zm5.3904 5.2968-0.7152 0.49247-0.034624 0.09509 0.43615 0.42633c0.1866 0.19644 0.26185 0.37401 0.22583 0.53278-0.025106 0.14842-0.17417 0.35218-0.447 0.61134l-5.2043 4.9129c-0.37104 0.35239-0.70051 0.53049-0.98805 0.53382-0.28755 0.00326-0.64508-0.17666-1.0723-0.53898l-0.76533 0.57154c0.11458 0.09876 0.37539 0.31838 0.78186 0.65887 0.39556 0.35086 0.80591 0.74991 1.2309 1.1974 0.54942 0.57839 1.2537 1.342 2.113 2.2903 0.85932 0.94835 1.4234 1.575 1.6924 1.88l0.17518 0.02016c0.52164-0.41248 1.0371-0.78777 1.5462-1.126 0.53037-0.33772 0.87102-0.54709 1.0222-0.62839l0.019637-0.14314-0.74982-0.65836c-0.56365 0.39011-1.0113 0.6182-1.3431 0.6842-0.31047 0.06655-0.64317-0.02174-0.9989-0.2651-0.35574-0.24337-0.87079-0.7195-1.5446-1.4289-0.30063-0.31648-0.50207-0.56135-0.6041-0.73432-0.09166-0.16206-0.10895-0.3116-0.052193-0.44855 0.067118-0.12604 0.22597-0.30831 0.47697-0.54674 0.6657-0.63235 1.4288-1.3259 2.2893-2.081 0.41739 0.33013 0.77169 0.64787 1.062 0.95343 0.37319 0.39287 0.71995 0.76903 1.0408 1.1286 0.33118 0.3705 0.55363 0.61583 0.66766 0.73587l1.0382-0.61237 0.019637-0.14314c-0.12494-0.10968-0.39089-0.33492-0.79737-0.67541-0.39556-0.35085-0.68674-0.62418-0.87333-0.82062l-1.2583-1.3581 2.4174-2.11c0.17406-0.14461 0.30398-0.2264 0.38964-0.24546 0.096577-0.02946 0.2022 0.00562 0.31678 0.10438 0.12549 0.0884 0.32834 0.27948 0.60823 0.57413 0.60125 0.63295 0.99895 1.0961 1.1937 1.3886 0.21606 0.29301 0.30069 0.53459 0.25321 0.72502-0.026199 0.19096-0.18135 0.42138-0.46509 0.69091-0.10913 0.10367-0.22363 0.2018-0.34313 0.29456-0.10858 0.08238-0.18476 0.14405-0.22841 0.18551l0.81235 0.72347c0.52219-0.43375 1.032-0.81466 1.5301-1.1426 0.49818-0.3279 0.81782-0.53773 0.9586-0.62994l0.03514-0.1266c-0.92753-0.77975-2.2567-2.0812-3.9879-3.9036-0.42502-0.44744-0.81391-0.86704-1.1658-1.2594-0.35191-0.39232-0.58977-0.654-0.71417-0.78496z" fill="#10362d"/><path d="m17.977 116.91q0.73834-0.0999 0.65657-0.70402l-0.09085-0.67122 0.08344-0.0569 0.89378 0.0385q0.0049 0.20439 0.05821 0.76676 0.05333 0.56238 0.13207 1.1441 0.06662 0.49223 0.19313 1.0903 0.15191 0.61738 0.19851 0.79335l-0.92944 0.0347q-0.17732-0.63673-0.48517-0.89125-0.28245-0.23517-0.80008-0.18789l-9.6571 1.0337-0.36422-0.83927q2.8223-2.5464 5.5042-5.1195t2.6372-2.567l-0.01514-0.11186-6.7883 0.85045q-0.4251 0.0575-0.56355 0.21298-0.13845 0.15544-0.09605 0.46867l0.14351 0.89192-0.058037 0.0762-0.91918-0.0579q-0.00488-0.20439-0.064271-0.81151-0.056362-0.58475-0.14418-1.2336-0.069651-0.51459-0.19313-1.0903-0.14586-0.57263-0.19246-0.74859l0.93247-0.0123q0.14283 0.55026 0.42528 0.78543 0.30483 0.23215 0.82245 0.18487l7.4167-0.75323q0.55934-0.0757 0.71528-0.43857 0.18134-0.34351 0.16905-1.276l0.09976-0.10464 0.78191 0.0537q0.0019 0.18202 0.02373 0.6803 0.04728 0.51762 0.11693 1.0322 0.06662 0.49222 0.14048 0.86955 0.07385 0.37733 0.11137 0.48617-2.4172 2.1726-4.919 4.5618-2.4988 2.4115-2.454 2.4055l0.01514 0.11187z"/></g></g></svg>
